<svg width="24" height="19" viewBox="0 0 24 19" fill="none" xmlns="http://www.w3.org/2000/svg">
<path d="M3.66133 2.17051L6.05342 -0.219336C6.22216 -0.388818 6.42272 -0.523291 6.64359 -0.615029C6.86445 -0.706768 7.10127 -0.753964 7.34043 -0.753906C7.82783 -0.753906 8.28603 -0.562988 8.62969 -0.219336L11.2037 2.35469C11.3732 2.52343 11.5077 2.72399 11.5994 2.94486C11.6911 3.16572 11.7383 3.40254 11.7383 3.6417C11.7383 4.1291 11.5474 4.5873 11.2037 4.93096L9.32148 6.81318C9.76207 7.7843 10.3746 8.66776 11.1296 9.4209C11.8827 10.1777 12.766 10.7925 13.7373 11.2357L15.6195 9.35352C15.7883 9.18403 15.9888 9.04956 16.2097 8.95782C16.4306 8.86608 16.6674 8.81889 16.9065 8.81895C17.3939 8.81895 17.8521 9.00986 18.1958 9.35352L20.7721 11.9253C20.9418 12.0943 21.0763 12.2953 21.1681 12.5165C21.2598 12.7378 21.3069 12.975 21.3066 13.2146C21.3066 13.702 21.1157 14.1602 20.7721 14.5038L18.3845 16.8914C17.8364 17.4417 17.0795 17.7539 16.3023 17.7539C16.1384 17.7539 15.9812 17.7404 15.8262 17.7135C12.7984 17.2148 9.79541 15.6044 7.37187 13.1831C4.95058 10.7641 3.34238 7.76328 2.83701 4.72656C2.68428 3.79893 2.99199 2.84434 3.66133 2.17051Z" fill="white"/>
</svg>
