<svg width="96" height="29" viewBox="0 0 96 29" fill="none" xmlns="http://www.w3.org/2000/svg">
<g clip-path="url(#clip0_851_7505)">
<path d="M87.7561 0.160248H7.6758C7.38389 0.160248 7.09549 0.160248 6.80436 0.161659C6.56066 0.16307 6.3189 0.16717 6.07285 0.17062C5.53833 0.176196 5.00507 0.217879 4.4777 0.295307C3.95106 0.37442 3.44093 0.523572 2.96454 0.737717C2.48874 0.953673 2.05399 1.23429 1.67606 1.56938C1.29614 1.90353 0.979448 2.28975 0.738162 2.71322C0.49621 3.13583 0.328439 3.58871 0.240645 4.05619C0.152016 4.52309 0.104324 4.99537 0.0979973 5.4688C0.0906102 5.68514 0.0898301 5.90219 0.0859375 6.11856V22.4279C0.0898301 22.647 0.0906102 22.8593 0.0979973 23.0784C0.104326 23.5518 0.152018 24.0241 0.240645 24.491C0.328197 24.9587 0.495977 25.4119 0.738162 25.8346C0.979338 26.2567 1.29607 26.6414 1.67606 26.9737C2.05256 27.3103 2.48759 27.5911 2.96454 27.8054C3.44092 28.0201 3.951 28.1701 4.4777 28.2505C5.00516 28.3273 5.53837 28.369 6.07285 28.3752C6.3189 28.38 6.56066 28.3828 6.80436 28.3828C7.09548 28.3842 7.38391 28.3842 7.6758 28.3842H87.7561C88.0422 28.3842 88.3329 28.3842 88.619 28.3828C88.8616 28.3828 89.1103 28.38 89.3529 28.3752C89.8864 28.3693 90.4186 28.3276 90.9449 28.2505C91.4733 28.1696 91.9852 28.0196 92.4639 27.8054C92.9404 27.5909 93.3751 27.3102 93.7513 26.9737C94.1302 26.6401 94.4477 26.2557 94.6918 25.8346C94.9322 25.4116 95.0984 24.9585 95.1846 24.491C95.2734 24.024 95.3228 23.5519 95.3324 23.0784C95.3355 22.8593 95.3355 22.647 95.3355 22.4279C95.3417 22.1716 95.3417 21.9167 95.3417 21.6562V6.88892C95.3417 6.63053 95.3417 6.3742 95.3355 6.11856C95.3355 5.90219 95.3355 5.68514 95.3324 5.46877C95.3228 4.99531 95.2734 4.52313 95.1846 4.05617C95.0981 3.58895 94.932 3.13611 94.6918 2.71319C94.2005 1.86441 93.4213 1.1735 92.4639 0.737653C91.9852 0.524031 91.4733 0.374919 90.9449 0.295243C90.4186 0.217474 89.8864 0.175777 89.3529 0.170521C89.1103 0.167078 88.8616 0.162943 88.619 0.161567C88.3329 0.160156 88.0422 0.160156 87.7561 0.160156V0.160248Z" fill="#1D1D1D"/>
<path d="M6.73895 27.7682C6.496 27.7682 6.25892 27.7655 6.01787 27.7607C5.51852 27.7549 5.02034 27.7164 4.52741 27.6456C4.06779 27.5755 3.62253 27.4452 3.20633 27.2589C2.79395 27.0741 2.41782 26.8319 2.09236 26.5414C1.76219 26.2544 1.4873 25.9214 1.2786 25.5558C1.0676 25.1879 0.921576 24.7934 0.845613 24.3863C0.76358 23.9488 0.719197 23.5064 0.712846 23.063C0.70779 22.9142 0.701172 22.4186 0.701172 22.4186V6.11547C0.701172 6.11547 0.708221 5.62751 0.712886 5.48415C0.718967 5.04142 0.763092 4.59975 0.84488 4.16294C0.920983 3.75468 1.06712 3.35911 1.27824 2.98992C1.48617 2.62457 1.75953 2.2914 2.08771 2.00333C2.41552 1.71252 2.79285 1.46902 3.20594 1.28172C3.62118 1.09603 4.0656 0.966623 4.5243 0.897839C5.01884 0.826253 5.51875 0.78755 6.01983 0.782055L6.73934 0.773438H88.6871L89.4152 0.7824C89.9118 0.787622 90.4071 0.82598 90.8971 0.897148C91.3605 0.966794 91.8095 1.0971 92.2295 1.28379C93.0571 1.66126 93.7304 2.25844 94.1552 2.99165C94.363 3.35829 94.5069 3.75063 94.582 4.15536C94.6648 4.59575 94.7111 5.0409 94.7206 5.48725C94.7229 5.68712 94.7229 5.90181 94.7229 6.11547C94.7292 6.38012 94.7292 6.63202 94.7292 6.88599V21.6563C94.7292 21.9127 94.7292 22.1629 94.7229 22.4151C94.7229 22.6446 94.7229 22.8549 94.7198 23.0713C94.7105 23.5097 94.6649 23.9469 94.5835 24.3794C94.5091 24.7894 94.3639 25.187 94.1529 25.558C93.9427 25.9196 93.6694 26.2496 93.3431 26.5359C93.0173 26.8279 92.6405 27.0716 92.2272 27.2575C91.8084 27.4453 91.36 27.5761 90.8971 27.6456C90.4042 27.7168 89.906 27.7553 89.4066 27.7607C89.1731 27.7655 88.9285 27.7682 88.691 27.7682L87.8267 27.7696L6.73895 27.7682Z" fill="black"/>
<path d="M23.2281 14.4843C23.2357 13.8954 23.3921 13.3179 23.6828 12.8057C23.9735 12.2935 24.3891 11.8631 24.8909 11.5546C24.5721 11.0994 24.1516 10.7248 23.6628 10.4605C23.1739 10.1962 22.6301 10.0496 22.0747 10.0322C20.8898 9.90782 19.7411 10.7412 19.1374 10.7412C18.5219 10.7412 17.5923 10.0445 16.5912 10.0651C15.9437 10.086 15.3127 10.2743 14.7595 10.6117C14.2064 10.949 13.7502 11.4238 13.4351 11.9899C12.0705 14.3525 13.0884 17.8248 14.3956 19.7346C15.0496 20.6698 15.814 21.7144 16.8141 21.6773C17.7928 21.6367 18.1584 21.0532 19.3397 21.0532C20.5102 21.0532 20.8531 21.6773 21.8735 21.6538C22.9237 21.6367 23.5854 20.7145 24.2165 19.7704C24.6864 19.1041 25.048 18.3677 25.2879 17.5884C24.6777 17.3303 24.1571 16.8984 23.7908 16.3464C23.4245 15.7944 23.2288 15.1468 23.2281 14.4843Z" fill="white"/>
<path d="M21.3005 8.77548C21.8731 8.08808 22.1552 7.20454 22.0869 6.3125C21.2121 6.40438 20.404 6.82249 19.8237 7.48352C19.5399 7.80645 19.3226 8.18213 19.1841 8.5891C19.0457 8.99607 18.9888 9.42634 19.0167 9.85531C19.4542 9.85981 19.8871 9.76497 20.2827 9.57793C20.6783 9.39088 21.0263 9.11651 21.3005 8.77548Z" fill="white"/>
<path d="M35.5996 19.3098H32.2597L31.4576 21.6781H30.043L33.2064 12.916H34.6762L37.8397 21.6781H36.4009L35.5996 19.3098ZM32.6056 18.217H35.253L33.9479 14.3734H33.9114L32.6056 18.217Z" fill="white"/>
<path d="M44.6719 18.4832C44.6719 20.4684 43.6094 21.7438 42.0059 21.7438C41.5997 21.7651 41.1958 21.6715 40.8403 21.4739C40.4848 21.2762 40.1922 20.9824 39.9959 20.6262H39.9656V23.7903H38.6543V15.2887H39.9236V16.3513H39.9477C40.153 15.9967 40.4506 15.7045 40.8087 15.5056C41.1669 15.3067 41.5723 15.2087 41.9818 15.2219C43.6031 15.2219 44.6719 16.5035 44.6719 18.4832ZM43.3241 18.4832C43.3241 17.1899 42.6557 16.3395 41.6359 16.3395C40.634 16.3395 39.9601 17.2078 39.9601 18.4832C39.9601 19.7704 40.634 20.6324 41.6359 20.6324C42.6557 20.6324 43.3241 19.7883 43.3241 18.4832Z" fill="white"/>
<path d="M51.7031 18.4832C51.7031 20.4684 50.6406 21.7438 49.0372 21.7438C48.631 21.7651 48.227 21.6715 47.8715 21.4739C47.5161 21.2762 47.2234 20.9824 47.0272 20.6262H46.9968V23.7903H45.6855V15.2887H46.9548V16.3512H46.9789C47.1842 15.9967 47.4818 15.7045 47.84 15.5056C48.1981 15.3067 48.6035 15.2087 49.013 15.2219C50.6344 15.2219 51.7031 16.5035 51.7031 18.4832ZM50.3553 18.4832C50.3553 17.1898 49.6869 16.3395 48.6671 16.3395C47.6652 16.3395 46.9913 17.2078 46.9913 18.4832C46.9913 19.7704 47.6652 20.6324 48.6671 20.6324C49.6869 20.6324 50.3553 19.7883 50.3553 18.4832H50.3553Z" fill="white"/>
<path d="M56.3501 19.2364C56.4473 20.1053 57.2914 20.6758 58.4449 20.6758C59.5501 20.6758 60.3453 20.1053 60.3453 19.3218C60.3453 18.6417 59.8657 18.2345 58.7301 17.9554L57.5946 17.6819C55.9856 17.2932 55.2387 16.5408 55.2387 15.3197C55.2387 13.8079 56.5562 12.7695 58.427 12.7695C60.2784 12.7695 61.5477 13.8079 61.5904 15.3197H60.2667C60.1875 14.4453 59.4647 13.9175 58.4083 13.9175C57.352 13.9175 56.6292 14.4515 56.6292 15.2288C56.6292 15.8483 57.0909 16.2128 58.2202 16.4918L59.1856 16.7289C60.9833 17.154 61.7303 17.8762 61.7303 19.1578C61.7303 20.7971 60.4245 21.8238 58.3477 21.8238C56.4045 21.8238 55.0926 20.8212 55.0078 19.2363L56.3501 19.2364Z" fill="white"/>
<path d="M64.5608 13.7773V15.2891H65.7756V16.3276H64.5608V19.8493C64.5608 20.3965 64.804 20.6514 65.338 20.6514C65.4823 20.6489 65.6262 20.6388 65.7694 20.6211V21.6533C65.5293 21.6981 65.2853 21.7185 65.0411 21.7139C63.7477 21.7139 63.2433 21.2281 63.2433 19.9892V16.3276H62.3145V15.2891H63.2433V13.7773H64.5608Z" fill="white"/>
<path d="M66.4785 18.484C66.4785 16.474 67.6623 15.2109 69.5083 15.2109C71.3605 15.2109 72.5388 16.474 72.5388 18.484C72.5388 20.4995 71.3667 21.757 69.5083 21.757C67.6506 21.757 66.4785 20.4995 66.4785 18.484ZM71.2027 18.484C71.2027 17.1052 70.5708 16.2914 69.5083 16.2914C68.4458 16.2914 67.8146 17.1114 67.8146 18.484C67.8146 19.8683 68.4458 20.6759 69.5083 20.6759C70.5708 20.6759 71.2027 19.8683 71.2027 18.484H71.2027Z" fill="white"/>
<path d="M73.6191 15.2887H74.8698V16.376H74.9001C74.9847 16.0364 75.1837 15.7363 75.4635 15.5261C75.7433 15.3159 76.087 15.2085 76.4367 15.2218C76.5878 15.2213 76.7385 15.2377 76.886 15.2707V16.4973C76.6952 16.439 76.4962 16.4122 76.2968 16.418C76.1063 16.4103 75.9164 16.4439 75.7401 16.5165C75.5638 16.5891 75.4053 16.699 75.2755 16.8386C75.1457 16.9782 75.0477 17.1443 74.9881 17.3254C74.9285 17.5065 74.9088 17.6984 74.9304 17.8878V21.6769H73.6191L73.6191 15.2887Z" fill="white"/>
<path d="M82.9325 19.8015C82.7561 20.9611 81.6268 21.757 80.1818 21.757C78.3234 21.757 77.1699 20.5119 77.1699 18.5143C77.1699 16.5105 78.3296 15.2109 80.1267 15.2109C81.8941 15.2109 83.0056 16.4251 83.0056 18.362V18.8113H78.4936V18.8905C78.4728 19.1256 78.5022 19.3625 78.58 19.5853C78.6577 19.8082 78.782 20.0119 78.9445 20.1831C79.1071 20.3542 79.3041 20.4888 79.5227 20.578C79.7413 20.6671 79.9763 20.7087 80.2121 20.7C80.522 20.729 80.833 20.6573 81.0988 20.4954C81.3646 20.3335 81.571 20.0901 81.6874 19.8015L82.9325 19.8015ZM78.4998 17.8948H81.6936C81.7054 17.6834 81.6733 17.4719 81.5995 17.2735C81.5256 17.075 81.4115 16.894 81.2644 16.7418C81.1173 16.5895 80.9403 16.4694 80.7445 16.3888C80.5487 16.3082 80.3384 16.2689 80.1267 16.2735C79.9131 16.2722 79.7015 16.3132 79.5039 16.3942C79.3063 16.4751 79.1267 16.5944 78.9754 16.7452C78.8242 16.8959 78.7043 17.0751 78.6226 17.2724C78.541 17.4698 78.4993 17.6813 78.4998 17.8948V17.8948Z" fill="white"/>
<path d="M32.4407 6.32118C32.7156 6.30146 32.9915 6.34299 33.2484 6.44278C33.5053 6.54258 33.7369 6.69815 33.9264 6.89827C34.1159 7.0984 34.2586 7.33809 34.3443 7.60006C34.4299 7.86203 34.4564 8.13974 34.4217 8.41317C34.4217 9.75822 33.6948 10.5314 32.4407 10.5314H30.9199V6.32118H32.4407ZM31.5738 9.93596H32.3676C32.5641 9.94771 32.7607 9.9155 32.9431 9.84168C33.1255 9.76787 33.2892 9.6543 33.4222 9.50925C33.5552 9.36421 33.6542 9.19133 33.7119 9.0032C33.7697 8.81508 33.7848 8.61644 33.7561 8.42175C33.7827 8.22783 33.7661 8.03042 33.7074 7.84368C33.6488 7.65693 33.5496 7.48547 33.4169 7.34157C33.2842 7.19768 33.1213 7.08492 32.9399 7.01137C32.7585 6.93782 32.5631 6.90531 32.3676 6.91615H31.5738V9.93596Z" fill="white"/>
<path d="M35.1594 8.94151C35.1395 8.73271 35.1633 8.52204 35.2296 8.32302C35.2958 8.12399 35.4028 7.941 35.5439 7.78578C35.685 7.63056 35.857 7.50654 36.0488 7.42167C36.2406 7.33681 36.448 7.29297 36.6578 7.29297C36.8675 7.29297 37.075 7.33681 37.2668 7.42167C37.4586 7.50654 37.6306 7.63056 37.7717 7.78578C37.9127 7.941 38.0198 8.12399 38.086 8.32302C38.1522 8.52204 38.1761 8.73271 38.1562 8.94151C38.1765 9.15053 38.1529 9.36149 38.0869 9.56084C38.0208 9.76018 37.9138 9.94351 37.7727 10.099C37.6316 10.2546 37.4595 10.3788 37.2675 10.4639C37.0755 10.5489 36.8678 10.5929 36.6578 10.5929C36.4478 10.5929 36.2401 10.5489 36.0481 10.4639C35.8561 10.3788 35.684 10.2546 35.5429 10.099C35.4018 9.94351 35.2948 9.76018 35.2287 9.56084C35.1627 9.36149 35.1391 9.15053 35.1594 8.94151ZM37.5112 8.94151C37.5112 8.2528 37.2018 7.85004 36.6588 7.85004C36.1138 7.85004 35.8072 8.2528 35.8072 8.94152C35.8072 9.63575 36.1138 10.0354 36.6588 10.0354C37.2018 10.0354 37.5112 9.63298 37.5112 8.94151H37.5112Z" fill="white"/>
<path d="M42.1401 10.5308H41.4896L40.833 8.19072H40.7834L40.1294 10.5308H39.4852L38.6094 7.35352H39.2454L39.8145 9.77795H39.8614L40.5146 7.35352H41.1162L41.7694 9.77795H41.819L42.3854 7.35352H43.0125L42.1401 10.5308Z" fill="white"/>
<path d="M43.75 7.35352H44.3536V7.85826H44.4005C44.48 7.67697 44.614 7.52501 44.784 7.42354C44.954 7.32207 45.1513 7.27615 45.3486 7.29219C45.5032 7.28057 45.6585 7.30388 45.8028 7.36039C45.9472 7.41691 46.077 7.50518 46.1826 7.61867C46.2882 7.73216 46.3669 7.86796 46.4129 8.01601C46.459 8.16406 46.4711 8.32056 46.4484 8.47393V10.5307H45.8213V8.63139C45.8213 8.1208 45.5994 7.86687 45.1357 7.86687C45.0307 7.86198 44.926 7.87985 44.8285 7.91924C44.7311 7.95864 44.6434 8.01863 44.5713 8.0951C44.4993 8.17158 44.4446 8.26273 44.4111 8.36231C44.3775 8.46189 44.3659 8.56755 44.377 8.67204V10.5308H43.75L43.75 7.35352Z" fill="white"/>
<path d="M47.4473 6.11328H48.0743V10.5308H47.4473V6.11328Z" fill="white"/>
<path d="M48.9465 8.94157C48.9266 8.73276 48.9505 8.52208 49.0167 8.32304C49.0829 8.12401 49.19 7.94101 49.3311 7.78579C49.4722 7.63057 49.6442 7.50654 49.836 7.42168C50.0278 7.33681 50.2353 7.29297 50.4451 7.29297C50.6548 7.29297 50.8623 7.33681 51.0541 7.42168C51.2459 7.50654 51.4179 7.63057 51.559 7.78579C51.7001 7.94101 51.8072 8.12401 51.8734 8.32304C51.9397 8.52208 51.9636 8.73276 51.9436 8.94157C51.9639 9.15059 51.9403 9.36156 51.8742 9.56091C51.8082 9.76025 51.7012 9.94358 51.56 10.0991C51.4189 10.2546 51.2468 10.3789 51.0548 10.4639C50.8628 10.549 50.6551 10.5929 50.4451 10.5929C50.2351 10.5929 50.0274 10.549 49.8353 10.4639C49.6433 10.3789 49.4712 10.2546 49.3301 10.0991C49.189 9.94358 49.0819 9.76025 49.0159 9.56091C48.9498 9.36156 48.9262 9.15059 48.9465 8.94157ZM51.2983 8.94157C51.2983 8.25286 50.9889 7.8501 50.4459 7.8501C49.9009 7.8501 49.5943 8.25286 49.5943 8.94158C49.5943 9.63581 49.9009 10.0355 50.4459 10.0355C50.9889 10.0355 51.2983 9.63305 51.2983 8.94157H51.2983Z" fill="white"/>
<path d="M52.6035 9.63302C52.6035 9.06109 53.0294 8.73138 53.7852 8.68452L54.6459 8.63491V8.36067C54.6459 8.02509 54.424 7.8356 53.9954 7.8356C53.6454 7.8356 53.4028 7.96411 53.3332 8.18875H52.7262C52.7903 7.64301 53.3036 7.29297 54.0244 7.29297C54.8209 7.29297 55.2702 7.68952 55.2702 8.36067V10.5316H54.6666V10.085H54.617C54.5163 10.2452 54.3748 10.3758 54.2072 10.4634C54.0395 10.5511 53.8516 10.5926 53.6626 10.5839C53.5292 10.5978 53.3944 10.5835 53.2669 10.5421C53.1393 10.5007 53.0219 10.433 52.9221 10.3434C52.8223 10.2538 52.7424 10.1443 52.6875 10.022C52.6327 9.89962 52.604 9.76712 52.6035 9.63302ZM54.6459 9.36152V9.09589L53.87 9.1455C53.4325 9.17479 53.234 9.32362 53.234 9.60373C53.234 9.88968 53.4821 10.0561 53.8232 10.0561C53.9231 10.0662 54.0241 10.0561 54.12 10.0264C54.216 9.99672 54.305 9.94802 54.3818 9.88322C54.4585 9.81841 54.5215 9.73883 54.5668 9.64921C54.6122 9.55958 54.6391 9.46175 54.6459 9.36152Z" fill="white"/>
<path d="M56.0938 8.94085C56.0938 7.93689 56.6099 7.30089 57.4126 7.30089C57.6112 7.29174 57.8083 7.3393 57.9808 7.43801C58.1533 7.53672 58.2942 7.6825 58.3869 7.85831H58.4338V6.11328H59.0609V10.5308H58.46V10.0289H58.4104C58.3105 10.2035 58.1647 10.3475 57.9888 10.4452C57.8129 10.5429 57.6137 10.5906 57.4126 10.5832C56.6043 10.5832 56.0938 9.94723 56.0938 8.94085ZM56.7415 8.94085C56.7415 9.61476 57.0592 10.0203 57.5904 10.0203C58.1189 10.0203 58.4455 9.60891 58.4455 8.94361C58.4455 8.28142 58.1155 7.86419 57.5904 7.86419C57.0626 7.86419 56.7415 8.27246 56.7415 8.94085H56.7415Z" fill="white"/>
<path d="M61.6555 8.94151C61.6356 8.73271 61.6594 8.52204 61.7256 8.32302C61.7919 8.12399 61.8989 7.941 62.04 7.78578C62.1811 7.63056 62.3531 7.50654 62.5449 7.42167C62.7367 7.33681 62.9441 7.29297 63.1539 7.29297C63.3636 7.29297 63.5711 7.33681 63.7629 7.42167C63.9547 7.50654 64.1267 7.63056 64.2677 7.78578C64.4088 7.941 64.5159 8.12399 64.5821 8.32302C64.6483 8.52204 64.6722 8.73271 64.6522 8.94151C64.6726 9.15053 64.649 9.36149 64.583 9.56084C64.5169 9.76018 64.4099 9.94351 64.2688 10.099C64.1277 10.2546 63.9556 10.3788 63.7636 10.4639C63.5716 10.5489 63.3639 10.5929 63.1539 10.5929C62.9439 10.5929 62.7362 10.5489 62.5442 10.4639C62.3522 10.3788 62.1801 10.2546 62.039 10.099C61.8979 9.94351 61.7908 9.76018 61.7248 9.56084C61.6588 9.36149 61.6352 9.15053 61.6555 8.94151ZM64.0073 8.94151C64.0073 8.2528 63.6979 7.85004 63.1549 7.85004C62.6099 7.85004 62.3033 8.2528 62.3033 8.94152C62.3033 9.63575 62.6099 10.0354 63.1549 10.0354C63.6979 10.0354 64.0073 9.63298 64.0073 8.94151Z" fill="white"/>
<path d="M65.4941 7.35352H66.0978V7.85826H66.1446C66.2241 7.67697 66.3582 7.52501 66.5281 7.42354C66.6981 7.32207 66.8955 7.27615 67.0928 7.29219C67.2474 7.28057 67.4026 7.30388 67.547 7.36039C67.6913 7.41691 67.8211 7.50518 67.9267 7.61867C68.0324 7.73216 68.1111 7.86796 68.1571 8.01601C68.2031 8.16406 68.2152 8.32056 68.1925 8.47393V10.5307H67.5655V8.63139C67.5655 8.1208 67.3436 7.86687 66.8798 7.86687C66.7749 7.86198 66.6701 7.87985 66.5727 7.91924C66.4753 7.95864 66.3875 8.01863 66.3155 8.0951C66.2434 8.17158 66.1887 8.26273 66.1552 8.36231C66.1217 8.46189 66.1101 8.56755 66.1212 8.67204V10.5308H65.4941V7.35352Z" fill="white"/>
<path d="M71.7356 6.5625V7.36801H72.424V7.89618H71.7356V9.52994C71.7356 9.86276 71.8728 10.0085 72.1849 10.0085C72.2648 10.0082 72.3447 10.0034 72.424 9.99402V10.5163C72.3114 10.5365 72.1973 10.5472 72.0829 10.5484C71.3856 10.5484 71.1079 10.3031 71.1079 9.69049V7.89615H70.6035V7.36798H71.1079V6.5625H71.7356Z" fill="white"/>
<path d="M73.2793 6.11328H73.9008V7.86419H73.9504C74.0338 7.68121 74.1715 7.52839 74.3449 7.42653C74.5183 7.32468 74.7188 7.27876 74.9192 7.29502C75.073 7.28666 75.2268 7.31233 75.3695 7.37022C75.5122 7.42811 75.6404 7.51678 75.7449 7.62992C75.8494 7.74305 75.9277 7.87786 75.9741 8.02472C76.0205 8.17158 76.034 8.32687 76.0135 8.47952V10.5309H75.3858V8.63421C75.3858 8.12671 75.1494 7.86969 74.7064 7.86969C74.5986 7.86085 74.4902 7.87567 74.3887 7.9131C74.2873 7.95054 74.1953 8.00969 74.1191 8.08641C74.0429 8.16314 73.9843 8.25558 73.9476 8.35729C73.9109 8.45899 73.8968 8.56749 73.9064 8.6752V10.5308H73.2793L73.2793 6.11328Z" fill="white"/>
<path d="M79.6705 9.67372C79.5853 9.96411 79.4007 10.2153 79.149 10.3833C78.8974 10.5514 78.5946 10.6256 78.2937 10.5929C78.0844 10.5985 77.8764 10.5584 77.6841 10.4754C77.4918 10.3925 77.3199 10.2687 77.1803 10.1127C77.0406 9.95666 76.9366 9.77211 76.8754 9.57184C76.8143 9.37158 76.7974 9.1604 76.8261 8.95297C76.7982 8.7449 76.8153 8.53327 76.8764 8.3324C76.9374 8.13154 77.0408 7.94613 77.1798 7.78873C77.3187 7.63133 77.4898 7.50561 77.6815 7.42009C77.8732 7.33457 78.0811 7.29123 78.291 7.29302C79.175 7.29302 79.7084 7.89701 79.7084 8.89473V9.11353H77.4648V9.14867C77.455 9.26526 77.4696 9.38263 77.5078 9.49323C77.546 9.60383 77.6069 9.70523 77.6866 9.79093C77.7662 9.87663 77.8629 9.94474 77.9705 9.99088C78.078 10.037 78.194 10.0602 78.311 10.0589C78.461 10.0769 78.6129 10.0499 78.7475 9.9813C78.8821 9.91271 78.9933 9.80564 79.0669 9.6737L79.6705 9.67372ZM77.4648 8.64978H79.0696C79.0775 8.54315 79.063 8.43604 79.0271 8.33533C78.9911 8.23463 78.9345 8.14257 78.8608 8.06505C78.7872 7.98754 78.6981 7.92629 78.5994 7.88524C78.5007 7.84419 78.3944 7.82425 78.2875 7.8267C78.1791 7.82534 78.0714 7.8457 77.971 7.88659C77.8705 7.92747 77.7793 7.98805 77.7026 8.06476C77.6259 8.14147 77.5654 8.23275 77.5246 8.33323C77.4837 8.4337 77.4634 8.54133 77.4648 8.64978H77.4648Z" fill="white"/>
</g>
<defs>
<clipPath id="clip0_851_7505">
<rect width="95.2558" height="28.2239" fill="white" transform="translate(0.0859375 0.160156)"/>
</clipPath>
</defs>
</svg>
