<svg width="200" height="54" viewBox="0 0 200 54" fill="none" xmlns="http://www.w3.org/2000/svg">
<g filter="url(#filter0_ddd_1670_4707)">
<path d="M26.598 0.839996C27.11 0.839996 27.558 0.98933 27.942 1.288C28.326 1.544 28.582 1.90666 28.71 2.376L42.918 45H37.094L25.638 8.776C25.4673 8.17866 25.2753 7.58133 25.062 6.984C24.8913 6.344 24.7207 5.74666 24.55 5.192H22.758C22.5873 5.74666 22.4167 6.344 22.246 6.984C22.0753 7.58133 21.8833 8.17866 21.67 8.776L10.214 45H4.39L18.598 2.376C18.726 1.90666 18.982 1.544 19.366 1.288C19.75 0.98933 20.198 0.839996 20.71 0.839996H26.598ZM34.79 26.312V31.176H12.39V26.312H34.79ZM61.4185 0.0719986C63.5092 0.114665 65.6638 0.221331 67.8825 0.391998C70.1012 0.562665 72.3198 0.882665 74.5385 1.352L74.1545 5.448C72.3198 5.36267 70.2932 5.29867 68.0745 5.256C65.8558 5.17066 63.7225 5.128 61.6745 5.128C60.0958 5.128 58.7305 5.192 57.5785 5.32C56.4692 5.40533 55.5518 5.66133 54.8265 6.088C54.1012 6.472 53.5678 7.13333 53.2265 8.072C52.9278 8.968 52.7785 10.2267 52.7785 11.848C52.7785 14.28 53.2052 15.9867 54.0585 16.968C54.9545 17.9067 56.3838 18.6107 58.3465 19.08L67.3065 21.32C70.7198 22.1307 73.0452 23.56 74.2825 25.608C75.5625 27.6133 76.2025 30.3227 76.2025 33.736C76.2025 36.296 75.9038 38.3653 75.3065 39.944C74.7518 41.5227 73.8772 42.7387 72.6825 43.592C71.4878 44.4027 69.9518 44.9573 68.0745 45.256C66.1972 45.5973 63.9785 45.768 61.4185 45.768C59.9678 45.768 58.0692 45.704 55.7225 45.576C53.4185 45.448 50.7518 45.1067 47.7225 44.552L48.1065 40.392C50.6238 40.4773 52.6505 40.5627 54.1865 40.648C55.7225 40.6907 57.0452 40.712 58.1545 40.712C59.2638 40.712 60.4158 40.712 61.6105 40.712C63.8718 40.712 65.6425 40.5413 66.9225 40.2C68.2452 39.8587 69.1625 39.176 69.6745 38.152C70.2292 37.128 70.5065 35.6133 70.5065 33.608C70.5065 31.9013 70.3145 30.5787 69.9305 29.64C69.5465 28.7013 68.9278 27.9973 68.0745 27.528C67.2638 27.016 66.2185 26.6107 64.9385 26.312L55.7865 24.008C52.5865 23.1973 50.3252 21.7893 49.0025 19.784C47.7225 17.7787 47.0825 15.0907 47.0825 11.72C47.0825 9.16 47.3598 7.112 47.9145 5.576C48.5118 3.99733 49.3865 2.824 50.5385 2.056C51.7332 1.24533 53.2265 0.711997 55.0185 0.455997C56.8105 0.199998 58.9438 0.0719986 61.4185 0.0719986ZM100.814 0.839996V45H95.1815V0.839996H100.814ZM115.086 0.839996V5.832H80.9735V0.839996H115.086ZM137.425 0.263996C140.838 0.263996 143.59 0.647996 145.681 1.416C147.772 2.14133 149.286 3.42133 150.225 5.256C151.206 7.09067 151.697 9.672 151.697 13C151.697 15.3893 151.42 17.3947 150.865 19.016C150.31 20.5947 149.436 21.832 148.241 22.728C147.089 23.5813 145.532 24.136 143.569 24.392V24.712C144.294 24.8827 144.998 25.2453 145.681 25.8C146.406 26.312 147.068 27.016 147.665 27.912C148.262 28.7653 148.71 29.8107 149.009 31.048L153.297 45H147.281L143.377 31.176C142.822 29.512 142.076 28.3387 141.137 27.656C140.198 26.9307 138.982 26.568 137.489 26.568C134.886 26.568 132.625 26.568 130.705 26.568C128.785 26.5253 127.185 26.4827 125.905 26.44C124.625 26.3973 123.601 26.376 122.833 26.376L123.025 21.704H137.297C139.473 21.6613 141.18 21.4053 142.417 20.936C143.697 20.4667 144.614 19.6347 145.169 18.44C145.724 17.2027 146.001 15.496 146.001 13.32C146.001 11.144 145.724 9.48 145.169 8.328C144.614 7.13333 143.697 6.30133 142.417 5.832C141.18 5.36266 139.473 5.128 137.297 5.128C133.798 5.128 130.769 5.14933 128.209 5.192C125.692 5.23466 123.985 5.256 123.089 5.256L122.193 0.839996C123.814 0.669332 125.329 0.541332 126.737 0.455997C128.145 0.370665 129.681 0.327999 131.345 0.327999C133.052 0.28533 135.078 0.263996 137.425 0.263996ZM127.761 0.839996V45H122.193V0.839996H127.761ZM179.036 0.839996C179.548 0.839996 179.996 0.98933 180.38 1.288C180.764 1.544 181.02 1.90666 181.148 2.376L195.356 45H189.532L178.076 8.776C177.905 8.17866 177.713 7.58133 177.5 6.984C177.329 6.344 177.158 5.74666 176.988 5.192H175.196C175.025 5.74666 174.854 6.344 174.684 6.984C174.513 7.58133 174.321 8.17866 174.108 8.776L162.652 45H156.828L171.036 2.376C171.164 1.90666 171.42 1.544 171.804 1.288C172.188 0.98933 172.636 0.839996 173.148 0.839996H179.036ZM187.228 26.312V31.176H164.828V26.312H187.228Z" fill="url(#paint0_linear_1670_4707)"/>
</g>
<defs>
<filter id="filter0_ddd_1670_4707" x="0.390625" y="0.0722656" width="198.965" height="53.6953" filterUnits="userSpaceOnUse" color-interpolation-filters="sRGB">
<feFlood flood-opacity="0" result="BackgroundImageFix"/>
<feColorMatrix in="SourceAlpha" type="matrix" values="0 0 0 0 0 0 0 0 0 0 0 0 0 0 0 0 0 0 127 0" result="hardAlpha"/>
<feOffset dy="4"/>
<feGaussianBlur stdDeviation="2"/>
<feComposite in2="hardAlpha" operator="out"/>
<feColorMatrix type="matrix" values="0 0 0 0 0 0 0 0 0 0 0 0 0 0 0 0 0 0 0.25 0"/>
<feBlend mode="normal" in2="BackgroundImageFix" result="effect1_dropShadow_1670_4707"/>
<feColorMatrix in="SourceAlpha" type="matrix" values="0 0 0 0 0 0 0 0 0 0 0 0 0 0 0 0 0 0 127 0" result="hardAlpha"/>
<feOffset dy="4"/>
<feGaussianBlur stdDeviation="2"/>
<feComposite in2="hardAlpha" operator="out"/>
<feColorMatrix type="matrix" values="0 0 0 0 0 0 0 0 0 0 0 0 0 0 0 0 0 0 0.25 0"/>
<feBlend mode="normal" in2="effect1_dropShadow_1670_4707" result="effect2_dropShadow_1670_4707"/>
<feColorMatrix in="SourceAlpha" type="matrix" values="0 0 0 0 0 0 0 0 0 0 0 0 0 0 0 0 0 0 127 0" result="hardAlpha"/>
<feOffset dy="4"/>
<feGaussianBlur stdDeviation="2"/>
<feComposite in2="hardAlpha" operator="out"/>
<feColorMatrix type="matrix" values="0 0 0 0 0 0 0 0 0 0 0 0 0 0 0 0 0 0 0.25 0"/>
<feBlend mode="normal" in2="effect2_dropShadow_1670_4707" result="effect3_dropShadow_1670_4707"/>
<feBlend mode="normal" in="SourceGraphic" in2="effect3_dropShadow_1670_4707" result="shape"/>
</filter>
<linearGradient id="paint0_linear_1670_4707" x1="-0.0390251" y1="22.5" x2="196" y2="22.5" gradientUnits="userSpaceOnUse">
<stop stop-color="#5433FF"/>
<stop offset="0.46875" stop-color="#20BDFF"/>
<stop offset="1" stop-color="#A5FECB"/>
</linearGradient>
</defs>
</svg>
