<svg width="200" height="54" viewBox="0 0 200 54" fill="none" xmlns="http://www.w3.org/2000/svg">
<g filter="url(#filter0_ddd_1670_4861)">
<path d="M26.8988 0.839996C27.4108 0.839996 27.8588 0.98933 28.2428 1.288C28.6268 1.544 28.8828 1.90666 29.0108 2.376L43.2188 45H37.3948L25.9388 8.776C25.7681 8.17866 25.5761 7.58133 25.3628 6.984C25.1921 6.344 25.0214 5.74666 24.8508 5.192H23.0588C22.8881 5.74666 22.7174 6.344 22.5468 6.984C22.3761 7.58133 22.1841 8.17866 21.9708 8.776L10.5148 45H4.69078L18.8988 2.376C19.0268 1.90666 19.2828 1.544 19.6668 1.288C20.0508 0.98933 20.4988 0.839996 21.0108 0.839996H26.8988ZM35.0908 26.312V31.176H12.6908V26.312H35.0908ZM61.7193 0.0719986C63.8099 0.114665 65.9646 0.221331 68.1833 0.391998C70.4019 0.562665 72.6206 0.882665 74.8393 1.352L74.4553 5.448C72.6206 5.36267 70.5939 5.29867 68.3753 5.256C66.1566 5.17066 64.0233 5.128 61.9753 5.128C60.3966 5.128 59.0313 5.192 57.8793 5.32C56.7699 5.40533 55.8526 5.66133 55.1273 6.088C54.4019 6.472 53.8686 7.13333 53.5273 8.072C53.2286 8.968 53.0793 10.2267 53.0793 11.848C53.0793 14.28 53.5059 15.9867 54.3593 16.968C55.2553 17.9067 56.6846 18.6107 58.6473 19.08L67.6073 21.32C71.0206 22.1307 73.3459 23.56 74.5833 25.608C75.8633 27.6133 76.5033 30.3227 76.5033 33.736C76.5033 36.296 76.2046 38.3653 75.6073 39.944C75.0526 41.5227 74.1779 42.7387 72.9833 43.592C71.7886 44.4027 70.2526 44.9573 68.3753 45.256C66.4979 45.5973 64.2793 45.768 61.7193 45.768C60.2686 45.768 58.3699 45.704 56.0233 45.576C53.7193 45.448 51.0526 45.1067 48.0233 44.552L48.4073 40.392C50.9246 40.4773 52.9513 40.5627 54.4873 40.648C56.0233 40.6907 57.3459 40.712 58.4553 40.712C59.5646 40.712 60.7166 40.712 61.9113 40.712C64.1726 40.712 65.9433 40.5413 67.2233 40.2C68.5459 39.8587 69.4633 39.176 69.9753 38.152C70.5299 37.128 70.8073 35.6133 70.8073 33.608C70.8073 31.9013 70.6153 30.5787 70.2313 29.64C69.8473 28.7013 69.2286 27.9973 68.3753 27.528C67.5646 27.016 66.5193 26.6107 65.2393 26.312L56.0873 24.008C52.8873 23.1973 50.6259 21.7893 49.3033 19.784C48.0233 17.7787 47.3833 15.0907 47.3833 11.72C47.3833 9.16 47.6606 7.112 48.2153 5.576C48.8126 3.99733 49.6873 2.824 50.8393 2.056C52.0339 1.24533 53.5273 0.711997 55.3193 0.455997C57.1113 0.199998 59.2446 0.0719986 61.7193 0.0719986ZM101.114 0.839996V45H95.4823V0.839996H101.114ZM115.386 0.839996V5.832H81.2743V0.839996H115.386ZM137.726 0.263996C141.139 0.263996 143.891 0.647996 145.982 1.416C148.072 2.14133 149.587 3.42133 150.526 5.256C151.507 7.09067 151.998 9.672 151.998 13C151.998 15.3893 151.72 17.3947 151.166 19.016C150.611 20.5947 149.736 21.832 148.542 22.728C147.39 23.5813 145.832 24.136 143.87 24.392V24.712C144.595 24.8827 145.299 25.2453 145.982 25.8C146.707 26.312 147.368 27.016 147.966 27.912C148.563 28.7653 149.011 29.8107 149.31 31.048L153.598 45H147.582L143.678 31.176C143.123 29.512 142.376 28.3387 141.438 27.656C140.499 26.9307 139.283 26.568 137.79 26.568C135.187 26.568 132.926 26.568 131.006 26.568C129.086 26.5253 127.486 26.4827 126.206 26.44C124.926 26.3973 123.902 26.376 123.134 26.376L123.326 21.704H137.598C139.774 21.6613 141.48 21.4053 142.718 20.936C143.998 20.4667 144.915 19.6347 145.47 18.44C146.024 17.2027 146.302 15.496 146.302 13.32C146.302 11.144 146.024 9.48 145.47 8.328C144.915 7.13333 143.998 6.30133 142.718 5.832C141.48 5.36266 139.774 5.128 137.598 5.128C134.099 5.128 131.07 5.14933 128.51 5.192C125.992 5.23466 124.286 5.256 123.39 5.256L122.494 0.839996C124.115 0.669332 125.63 0.541332 127.038 0.455997C128.446 0.370665 129.982 0.327999 131.646 0.327999C133.352 0.28533 135.379 0.263996 137.726 0.263996ZM128.062 0.839996V45H122.494V0.839996H128.062ZM179.336 0.839996C179.848 0.839996 180.296 0.98933 180.68 1.288C181.064 1.544 181.32 1.90666 181.448 2.376L195.656 45H189.832L178.376 8.776C178.206 8.17866 178.014 7.58133 177.8 6.984C177.63 6.344 177.459 5.74666 177.288 5.192H175.496C175.326 5.74666 175.155 6.344 174.984 6.984C174.814 7.58133 174.622 8.17866 174.408 8.776L162.952 45H157.128L171.336 2.376C171.464 1.90666 171.72 1.544 172.104 1.288C172.488 0.98933 172.936 0.839996 173.448 0.839996H179.336ZM187.528 26.312V31.176H165.128V26.312H187.528Z" fill="url(#paint0_linear_1670_4861)"/>
</g>
<defs>
<filter id="filter0_ddd_1670_4861" x="0.691406" y="0.0722656" width="198.965" height="53.6953" filterUnits="userSpaceOnUse" color-interpolation-filters="sRGB">
<feFlood flood-opacity="0" result="BackgroundImageFix"/>
<feColorMatrix in="SourceAlpha" type="matrix" values="0 0 0 0 0 0 0 0 0 0 0 0 0 0 0 0 0 0 127 0" result="hardAlpha"/>
<feOffset dy="4"/>
<feGaussianBlur stdDeviation="2"/>
<feComposite in2="hardAlpha" operator="out"/>
<feColorMatrix type="matrix" values="0 0 0 0 0 0 0 0 0 0 0 0 0 0 0 0 0 0 0.25 0"/>
<feBlend mode="normal" in2="BackgroundImageFix" result="effect1_dropShadow_1670_4861"/>
<feColorMatrix in="SourceAlpha" type="matrix" values="0 0 0 0 0 0 0 0 0 0 0 0 0 0 0 0 0 0 127 0" result="hardAlpha"/>
<feOffset dy="4"/>
<feGaussianBlur stdDeviation="2"/>
<feComposite in2="hardAlpha" operator="out"/>
<feColorMatrix type="matrix" values="0 0 0 0 0 0 0 0 0 0 0 0 0 0 0 0 0 0 0.25 0"/>
<feBlend mode="normal" in2="effect1_dropShadow_1670_4861" result="effect2_dropShadow_1670_4861"/>
<feColorMatrix in="SourceAlpha" type="matrix" values="0 0 0 0 0 0 0 0 0 0 0 0 0 0 0 0 0 0 127 0" result="hardAlpha"/>
<feOffset dy="4"/>
<feGaussianBlur stdDeviation="2"/>
<feComposite in2="hardAlpha" operator="out"/>
<feColorMatrix type="matrix" values="0 0 0 0 0 0 0 0 0 0 0 0 0 0 0 0 0 0 0.25 0"/>
<feBlend mode="normal" in2="effect2_dropShadow_1670_4861" result="effect3_dropShadow_1670_4861"/>
<feBlend mode="normal" in="SourceGraphic" in2="effect3_dropShadow_1670_4861" result="shape"/>
</filter>
<linearGradient id="paint0_linear_1670_4861" x1="12.6918" y1="22.5" x2="225.478" y2="22.5" gradientUnits="userSpaceOnUse">
<stop stop-color="#5433FF"/>
<stop offset="0.46875" stop-color="#20BDFF"/>
<stop offset="1" stop-color="#A5FECB"/>
</linearGradient>
</defs>
</svg>
