<svg width="96" height="29" viewBox="0 0 96 29" fill="none" xmlns="http://www.w3.org/2000/svg">
<g clip-path="url(#clip0_851_7484)">
<path d="M92.0906 0.160156H3.89126C1.94281 0.160156 0.363281 1.73968 0.363281 3.68813V24.856C0.363281 26.8044 1.94281 28.3839 3.89126 28.3839H92.0906C94.039 28.3839 95.6186 26.8044 95.6186 24.856V3.68813C95.6186 1.73968 94.039 0.160156 92.0906 0.160156Z" fill="black"/>
<path d="M92.0906 0.724491C92.8763 0.725399 93.6296 1.03794 94.1851 1.59354C94.7407 2.14914 95.0532 2.90242 95.054 3.68813V24.856C95.0532 25.6417 94.7407 26.395 94.1851 26.9506C93.6296 27.5062 92.8763 27.8187 92.0906 27.8196H3.89126C3.10554 27.8187 2.35227 27.5062 1.7967 26.9506C1.24112 26.395 0.928625 25.6417 0.927757 24.856V3.68813C0.928612 2.90241 1.24111 2.14912 1.79668 1.59352C2.35226 1.03791 3.10554 0.725384 3.89126 0.724491H92.0906ZM92.0906 0.160156H3.89126C2.95642 0.162893 2.06065 0.535467 1.39962 1.1965C0.738592 1.85753 0.366018 2.75329 0.363281 3.68813L0.363281 24.856C0.366018 25.7908 0.738592 26.6866 1.39962 27.3476C2.06065 28.0086 2.95642 28.3812 3.89126 28.3839H92.0906C93.0254 28.3812 93.9212 28.0086 94.5822 27.3476C95.2433 26.6866 95.6158 25.7908 95.6186 24.856V3.68813C95.6158 2.75329 95.2433 1.85753 94.5822 1.1965C93.9212 0.535467 93.0254 0.162893 92.0906 0.160156Z" fill="#1D1D1D"/>
<path d="M33.8217 7.38713C33.8345 7.64605 33.7945 7.90486 33.7041 8.14782C33.6137 8.39078 33.4748 8.6128 33.2958 8.80037C33.0953 9.00835 32.8531 9.17165 32.5851 9.27959C32.3171 9.38753 32.0294 9.43766 31.7406 9.42673C31.4501 9.42933 31.162 9.37382 30.8932 9.26347C30.6244 9.15312 30.3803 8.99016 30.1754 8.78415C29.9705 8.57814 29.8089 8.33325 29.7 8.06388C29.591 7.7945 29.5371 7.50607 29.5412 7.21553C29.5371 6.92499 29.5911 6.63656 29.7 6.36718C29.8089 6.09779 29.9706 5.85289 30.1755 5.64687C30.3804 5.44084 30.6244 5.27784 30.8932 5.16744C31.162 5.05704 31.4501 5.00147 31.7406 5.00399C32.0394 5.00309 32.3351 5.06348 32.6096 5.18145C32.8645 5.28477 33.0914 5.44685 33.2718 5.65448L32.8997 6.02689C32.7578 5.85998 32.5796 5.72788 32.3786 5.64079C32.1777 5.5537 31.9594 5.51394 31.7406 5.52458C31.5204 5.52344 31.3023 5.56675 31.0992 5.65192C30.8961 5.7371 30.7124 5.86238 30.5589 6.02026C30.4053 6.17815 30.2853 6.36539 30.2059 6.57077C30.1264 6.77615 30.0893 6.99545 30.0966 7.21553C30.0914 7.54519 30.1841 7.86897 30.3631 8.14583C30.5421 8.4227 30.7993 8.64017 31.1021 8.77067C31.4049 8.90117 31.7396 8.93882 32.0638 8.87885C32.388 8.81888 32.687 8.66399 32.9231 8.43381C33.1403 8.19972 33.2663 7.89538 33.2779 7.57623H31.7406V7.06771H33.792C33.8114 7.17309 33.8213 7.27999 33.8217 7.38713Z" fill="white" stroke="white" stroke-width="0.14112" stroke-miterlimit="10"/>
<path d="M37.0732 5.61984H35.1452V6.9621H36.8837V7.47069H35.1452V8.81294H37.0732V9.33318H34.6016V5.09961H37.0732V5.61984Z" fill="white" stroke="white" stroke-width="0.14112" stroke-miterlimit="10"/>
<path d="M39.3674 9.33318H38.8231V5.61984H37.6406V5.09961H40.5499V5.61984H39.3674V9.33318Z" fill="white" stroke="white" stroke-width="0.14112" stroke-miterlimit="10"/>
<path d="M42.6543 9.33318V5.09961H43.198V9.33318H42.6543Z" fill="white" stroke="white" stroke-width="0.14112" stroke-miterlimit="10"/>
<path d="M45.6115 9.33318H45.0671V5.61984H43.8848V5.09961H46.7939V5.61984H45.6115V9.33318Z" fill="white" stroke="white" stroke-width="0.14112" stroke-miterlimit="10"/>
<path d="M52.3026 8.78512C51.8905 9.19595 51.3323 9.42665 50.7505 9.42665C50.1686 9.42665 49.6104 9.19595 49.1984 8.78512C48.9945 8.57864 48.8343 8.33328 48.7271 8.06363C48.62 7.79397 48.5682 7.50553 48.5748 7.21545C48.5682 6.92537 48.62 6.63693 48.7271 6.36728C48.8343 6.09762 48.9945 5.85226 49.1984 5.64579C49.4021 5.44206 49.6439 5.2805 49.9101 5.17036C50.1763 5.06021 50.4616 5.00365 50.7497 5.00391C51.0377 5.00416 51.3229 5.06123 51.5889 5.17185C51.8549 5.28246 52.0965 5.44445 52.2998 5.64854C52.5038 5.85447 52.6644 6.09928 52.772 6.36844C52.8796 6.63761 52.932 6.92564 52.9262 7.21545C52.9326 7.50551 52.8807 7.7939 52.7736 8.06353C52.6664 8.33316 52.5063 8.57854 52.3026 8.78512ZM49.6001 8.43063C49.9053 8.7353 50.3189 8.90642 50.7501 8.90642C51.1814 8.90642 51.595 8.7353 51.9002 8.43063C52.0567 8.2704 52.1791 8.08011 52.26 7.87125C52.3408 7.66239 52.3786 7.4393 52.3708 7.21545C52.3786 6.99161 52.3408 6.76852 52.26 6.55966C52.1791 6.3508 52.0567 6.1605 51.9002 6.00028C51.595 5.69561 51.1814 5.52449 50.7501 5.52449C50.3189 5.52449 49.9053 5.69561 49.6001 6.00028C49.4438 6.16063 49.3216 6.35096 49.2408 6.5598C49.1601 6.76864 49.1224 6.99167 49.1301 7.21545C49.1224 7.43923 49.1601 7.66226 49.2408 7.8711C49.3216 8.07994 49.4438 8.27027 49.6001 8.43063Z" fill="white" stroke="white" stroke-width="0.14112" stroke-miterlimit="10"/>
<path d="M53.6895 9.33318V5.09961H54.3517L56.4092 8.39297H56.4326L56.4092 7.57709V5.09961H56.9535V9.33318H56.3857L54.2331 5.88028H54.2097L54.2331 6.69616V9.33318H53.6895Z" fill="white" stroke="white" stroke-width="0.14112" stroke-miterlimit="10"/>
<path d="M48.4399 15.5074C47.8469 15.5096 47.2678 15.6875 46.7757 16.0187C46.2837 16.3498 45.9008 16.8193 45.6754 17.3678C45.4501 17.9164 45.3922 18.5194 45.5093 19.1008C45.6264 19.6822 45.9131 20.2159 46.3333 20.6345C46.7534 21.053 47.2882 21.3377 47.87 21.4526C48.4519 21.5674 49.0547 21.5073 49.6024 21.2799C50.1501 21.0524 50.6181 20.6677 50.9474 20.1744C51.2766 19.6812 51.4523 19.1014 51.4523 18.5083C51.4581 18.1117 51.3841 17.7179 51.2346 17.3504C51.0852 16.9829 50.8633 16.6493 50.5823 16.3693C50.3012 16.0893 49.9667 15.8687 49.5987 15.7206C49.2306 15.5726 48.8366 15.5 48.4399 15.5074ZM48.4399 20.3272C48.0747 20.3532 47.7101 20.2687 47.3935 20.0846C47.077 19.9005 46.8232 19.6254 46.6653 19.2951C46.5073 18.9647 46.4524 18.5945 46.5078 18.2326C46.5632 17.8706 46.7263 17.5337 46.9758 17.2658C47.2254 16.9978 47.5498 16.8112 47.9069 16.7302C48.264 16.6492 48.6372 16.6776 48.9779 16.8116C49.3186 16.9457 49.6111 17.1793 49.8172 17.4819C50.0234 17.7845 50.1336 18.1422 50.1336 18.5083C50.1447 18.7397 50.1094 18.9709 50.0298 19.1883C49.9502 19.4058 49.8278 19.6052 49.67 19.7746C49.5122 19.9441 49.3221 20.0803 49.1108 20.1752C48.8995 20.2701 48.6714 20.3218 48.4399 20.3272ZM41.8684 15.5074C41.2754 15.5096 40.6963 15.6875 40.2042 16.0186C39.7122 16.3497 39.3293 16.8192 39.1039 17.3678C38.8785 17.9163 38.8207 18.5194 38.9378 19.1008C39.0548 19.6822 39.3415 20.2159 39.7617 20.6344C40.1818 21.053 40.7166 21.3377 41.2984 21.4526C41.8803 21.5674 42.4831 21.5073 43.0308 21.2799C43.5785 21.0524 44.0465 20.6677 44.3758 20.1745C44.705 19.6812 44.8808 19.1014 44.8807 18.5083C44.8866 18.1117 44.8126 17.7179 44.6631 17.3504C44.5136 16.9829 44.2918 16.6493 44.0107 16.3693C43.7297 16.0893 43.3952 15.8687 43.0272 15.7207C42.6591 15.5726 42.2651 15.5 41.8684 15.5074ZM41.8684 20.3272C41.5032 20.3532 41.1386 20.2687 40.8221 20.0846C40.5055 19.9005 40.2518 19.6254 40.0938 19.2951C39.9358 18.9647 39.8809 18.5945 39.9363 18.2326C39.9917 17.8706 40.1548 17.5337 40.4043 17.2658C40.6539 16.9978 40.9783 16.8112 41.3354 16.7302C41.6925 16.6492 42.0657 16.6776 42.4064 16.8116C42.7471 16.9457 43.0396 17.1793 43.2457 17.4819C43.4519 17.7845 43.5621 18.1422 43.5621 18.5083C43.5732 18.7397 43.5379 18.9709 43.4583 19.1883C43.3787 19.4058 43.2564 19.6052 43.0985 19.7746C42.9407 19.9441 42.7506 20.0803 42.5393 20.1752C42.3281 20.2701 42.0999 20.3218 41.8684 20.3272ZM34.0513 16.4282V17.7013H37.0978C37.0539 18.2984 36.8095 18.8632 36.4044 19.3041C36.0991 19.6153 35.7319 19.859 35.3266 20.0196C34.9213 20.1801 34.4869 20.2539 34.0513 20.2362C33.1608 20.2241 32.3109 19.8619 31.6854 19.228C31.06 18.594 30.7093 17.7393 30.7093 16.8487C30.7093 15.9582 31.06 15.1034 31.6854 14.4694C32.3109 13.8355 33.1608 13.4733 34.0513 13.4612C34.9066 13.45 35.7318 13.7768 36.3476 14.3706L37.2456 13.4726C36.8254 13.0566 36.3265 12.7288 35.778 12.5082C35.2294 12.2876 34.6424 12.1788 34.0513 12.188C33.4335 12.1791 32.8201 12.293 32.2468 12.5231C31.6735 12.7533 31.1516 13.0952 30.7116 13.5289C30.2715 13.9625 29.9221 14.4794 29.6836 15.0493C29.4451 15.6192 29.3223 16.2309 29.3223 16.8487C29.3223 17.4665 29.4451 18.0782 29.6836 18.6481C29.9221 19.2181 30.2715 19.7349 30.7116 20.1686C31.1516 20.6022 31.6735 20.9441 32.2468 21.1743C32.8201 21.4045 33.4335 21.5184 34.0513 21.5094C34.6549 21.5344 35.2569 21.4308 35.8174 21.2054C36.3779 20.98 36.8841 20.638 37.3024 20.2021C38.045 19.3916 38.4408 18.3226 38.4051 17.2239C38.408 16.9571 38.3851 16.6906 38.3368 16.4282H34.0513ZM66.0206 17.4171C65.8402 16.8735 65.4969 16.3986 65.0373 16.057C64.5777 15.7153 64.024 15.5234 63.4515 15.5074C63.0659 15.5098 62.6848 15.5903 62.3313 15.7442C61.9777 15.898 61.659 16.122 61.3944 16.4025C61.1299 16.683 60.9249 17.0142 60.792 17.3762C60.6591 17.7381 60.6009 18.1233 60.6211 18.5083C60.6124 18.9029 60.6833 19.2952 60.8296 19.6617C60.9759 20.0282 61.1946 20.3615 61.4726 20.6416C61.7506 20.9217 62.0822 21.143 62.4476 21.2921C62.813 21.4411 63.2047 21.5151 63.5993 21.5094C64.0937 21.5121 64.581 21.392 65.0175 21.1599C65.454 20.9278 65.826 20.5908 66.1001 20.1794L65.0771 19.4974C64.9238 19.7519 64.707 19.9622 64.4479 20.1077C64.1889 20.2532 63.8964 20.3288 63.5993 20.3272C63.2936 20.3388 62.9914 20.2584 62.7319 20.0962C62.4725 19.9341 62.2677 19.6977 62.1443 19.4178L66.157 17.7582L66.0206 17.4171ZM61.9283 18.4175C61.9142 18.199 61.9438 17.98 62.0153 17.7731C62.0869 17.5663 62.199 17.3758 62.345 17.2128C62.4911 17.0498 62.6682 16.9175 62.866 16.8238C63.0638 16.7301 63.2783 16.6767 63.497 16.6669C63.7246 16.6519 63.9517 16.7043 64.1498 16.8175C64.3479 16.9307 64.5083 17.0997 64.611 17.3035L61.9283 18.4175ZM58.6658 21.3275H59.9844V12.5064H58.6658V21.3275ZM56.506 16.178H56.4605C56.2601 15.9602 56.0154 15.7877 55.7429 15.6721C55.4704 15.5564 55.1764 15.5003 54.8804 15.5074C54.1066 15.5403 53.3754 15.8709 52.8395 16.4301C52.3036 16.9893 52.0044 17.7339 52.0044 18.5084C52.0044 19.2829 52.3036 20.0275 52.8395 20.5867C53.3754 21.1459 54.1066 21.4764 54.8804 21.5094C55.1776 21.5173 55.4728 21.4604 55.7457 21.3426C56.0186 21.2248 56.2625 21.049 56.4605 20.8274H56.506V21.2593C56.506 22.4075 55.8922 23.0213 54.9032 23.0213C54.5736 23.0134 54.2538 22.9075 53.9845 22.7172C53.7153 22.5269 53.5088 22.2608 53.3914 21.9527L52.2432 22.4302C52.4596 22.957 52.8284 23.4073 53.3023 23.7232C53.7762 24.0391 54.3336 24.2064 54.9032 24.2035C56.4492 24.2035 57.7564 23.2941 57.7564 21.0774V15.6892H56.506V16.178ZM54.9942 20.3272C54.5384 20.2885 54.1138 20.0802 53.8043 19.7433C53.4948 19.4065 53.3231 18.9658 53.3231 18.5084C53.3231 18.051 53.4948 17.6102 53.8043 17.2734C54.1138 16.9366 54.5384 16.7282 54.9942 16.6896C55.2209 16.7007 55.4431 16.7573 55.6475 16.8561C55.8519 16.9548 56.0344 17.0938 56.1839 17.2645C56.3335 17.4353 56.4471 17.6345 56.5181 17.8501C56.5891 18.0658 56.6159 18.2935 56.5969 18.5197C56.6147 18.7445 56.5869 18.9706 56.5152 19.1845C56.4435 19.3983 56.3295 19.5955 56.1799 19.7642C56.0302 19.9329 55.8481 20.0698 55.6444 20.1665C55.4407 20.2632 55.2195 20.3179 54.9942 20.3272ZM72.1973 12.5066H69.0424V21.3275H70.3589V17.9855H72.1973C72.5697 18.0059 72.9423 17.9502 73.2924 17.8217C73.6425 17.6933 73.9628 17.4948 74.2336 17.2384C74.5045 16.982 74.7202 16.6731 74.8676 16.3306C75.015 15.988 75.0911 15.619 75.0911 15.246C75.0911 14.8731 75.015 14.5041 74.8676 14.1615C74.7202 13.8189 74.5045 13.51 74.2336 13.2536C73.9628 12.9972 73.6425 12.7988 73.2924 12.6703C72.9423 12.5419 72.5697 12.4861 72.1973 12.5066ZM72.2313 16.7579H70.3589V13.7342H72.2313C72.4325 13.73 72.6325 13.7661 72.8195 13.8402C73.0066 13.9143 73.177 14.025 73.3208 14.1658C73.4645 14.3066 73.5787 14.4747 73.6567 14.6601C73.7346 14.8456 73.7748 15.0448 73.7748 15.2461C73.7748 15.4473 73.7346 15.6465 73.6567 15.832C73.5787 16.0175 73.4645 16.1855 73.3208 16.3263C73.177 16.4671 73.0066 16.5778 72.8195 16.6519C72.6325 16.726 72.4325 16.7621 72.2313 16.7579ZM80.368 15.4911C79.8875 15.4631 79.4092 15.5759 78.9919 15.8158C78.5746 16.0557 78.2364 16.4122 78.0189 16.8416L79.1878 17.3296C79.3036 17.1165 79.4792 16.9418 79.6928 16.8269C79.9065 16.712 80.149 16.6619 80.3907 16.6827C80.7246 16.6501 81.0579 16.7512 81.3175 16.9639C81.577 17.1767 81.7416 17.4836 81.7752 17.8175V17.9083C81.3524 17.6837 80.8808 17.5668 80.402 17.5679C79.1424 17.5679 77.86 18.2601 77.86 19.5538C77.8723 19.8265 77.9392 20.0939 78.0567 20.3402C78.1743 20.5865 78.3401 20.8067 78.5444 20.9877C78.7487 21.1687 78.9872 21.3068 79.2459 21.3938C79.5046 21.4808 79.7781 21.515 80.0502 21.4944C80.3817 21.5139 80.7124 21.4441 81.0078 21.2925C81.3032 21.1408 81.5525 20.9127 81.7298 20.6319H81.7752V21.3128H83.0462V17.931C83.0462 16.365 81.8773 15.4911 80.368 15.4911ZM80.2091 20.3255C79.7779 20.3255 79.1764 20.1099 79.1764 19.5765C79.1764 18.8956 79.9254 18.6346 80.5723 18.6346C80.9924 18.6234 81.4079 18.7253 81.7752 18.9297C81.7268 19.3123 81.5416 19.6644 81.2537 19.921C80.9658 20.1776 80.5947 20.3213 80.2091 20.3255ZM87.6763 15.6841L86.1669 19.5084H86.1215L84.5555 15.6841H83.137L85.486 21.0291L84.147 24.0023H85.5201L89.1402 15.6841H87.6763ZM75.8173 21.3275H77.1337V12.5066H75.8173V21.3275Z" fill="white"/>
<path d="M7.7256 5.47896C7.49422 5.7556 7.3774 6.11025 7.39905 6.47025V22.0753C7.37733 22.4353 7.49417 22.7899 7.7256 23.0665L7.77781 23.1174L16.5194 14.3759V14.1696L7.77781 5.42773L7.7256 5.47896Z" fill="url(#paint0_linear_851_7484)"/>
<path d="M19.4332 17.2916L16.5195 14.3765V14.1702L19.4339 11.2559L19.4996 11.2933L22.9519 13.255C23.9381 13.8152 23.9381 14.7319 22.9519 15.2925L19.4996 17.2541L19.4332 17.2916Z" fill="url(#paint1_linear_851_7484)"/>
<path d="M19.5005 17.2538L16.5204 14.2734L7.72656 23.0672C7.92749 23.2444 8.18409 23.3458 8.45189 23.3537C8.71969 23.3616 8.98181 23.2756 9.19286 23.1105L19.5005 17.2538Z" fill="url(#paint2_linear_851_7484)"/>
<path d="M19.5005 11.2918L9.19286 5.43505C8.98181 5.27001 8.71969 5.18399 8.45189 5.19191C8.18409 5.19982 7.92749 5.30116 7.72656 5.47838L16.5204 14.2722L19.5005 11.2918Z" fill="url(#paint3_linear_851_7484)"/>
<path opacity="0.2" d="M19.4348 17.1875L9.19286 23.0068C8.98994 23.1612 8.74228 23.2455 8.48726 23.2469C8.23223 23.2482 7.98369 23.1666 7.77913 23.0143L7.72656 23.0669L7.77878 23.1177L7.77913 23.1174C7.98365 23.2698 8.23221 23.3515 8.48726 23.3501C8.7423 23.3487 8.98998 23.2644 9.19286 23.1098L19.5005 17.2531L19.4348 17.1875Z" fill="#1D1D1D"/>
<path opacity="0.12" d="M7.72558 22.9639C7.49423 22.6873 7.3774 22.3326 7.39903 21.9727V22.0757C7.37739 22.4357 7.49422 22.7904 7.72558 23.067L7.77815 23.0145L7.72558 22.9639Z" fill="#1D1D1D"/>
<path opacity="0.12" d="M22.9536 15.1888L19.4355 17.1879L19.5012 17.2535L22.9536 15.2919C23.1566 15.2038 23.3324 15.0628 23.4625 14.8837C23.5926 14.7045 23.6723 14.4938 23.6932 14.2734C23.6496 14.473 23.56 14.6597 23.4316 14.8186C23.3032 14.9775 23.1395 15.1042 22.9536 15.1888Z" fill="#1D1D1D"/>
<path opacity="0.25" d="M9.19324 5.53982L22.9532 13.3578C23.1392 13.4424 23.303 13.5692 23.4314 13.7282C23.5598 13.8871 23.6493 14.0739 23.6929 14.2735C23.672 14.0531 23.5924 13.8422 23.4623 13.663C23.3322 13.4838 23.1564 13.3428 22.9532 13.2547L9.19324 5.43673C8.2071 4.87642 7.40039 5.34183 7.40039 6.47135V6.57444C7.40039 5.44499 8.2071 4.97958 9.19324 5.53982Z" fill="white"/>
</g>
<defs>
<linearGradient id="paint0_linear_851_7484" x1="15.7442" y1="6.30571" x2="3.90263" y2="18.1473" gradientUnits="userSpaceOnUse">
<stop stop-color="#00A0FF"/>
<stop offset="0.00657" stop-color="#00A1FF"/>
<stop offset="0.2601" stop-color="#00BEFF"/>
<stop offset="0.5122" stop-color="#00D2FF"/>
<stop offset="0.7604" stop-color="#00DFFF"/>
<stop offset="1" stop-color="#00E3FF"/>
</linearGradient>
<linearGradient id="paint1_linear_851_7484" x1="24.2359" y1="14.2737" x2="7.1627" y2="14.2737" gradientUnits="userSpaceOnUse">
<stop stop-color="#FFE000"/>
<stop offset="0.4087" stop-color="#FFBD00"/>
<stop offset="0.7754" stop-color="#FFA500"/>
<stop offset="1" stop-color="#FF9C00"/>
</linearGradient>
<linearGradient id="paint2_linear_851_7484" x1="17.8812" y1="15.8928" x2="1.82304" y2="31.951" gradientUnits="userSpaceOnUse">
<stop stop-color="#FF3A44"/>
<stop offset="1" stop-color="#C31162"/>
</linearGradient>
<linearGradient id="paint3_linear_851_7484" x1="5.51236" y1="0.283917" x2="12.683" y2="7.45454" gradientUnits="userSpaceOnUse">
<stop stop-color="#32A071"/>
<stop offset="0.0685" stop-color="#2DA771"/>
<stop offset="0.4762" stop-color="#15CF74"/>
<stop offset="0.8009" stop-color="#06E775"/>
<stop offset="1" stop-color="#00F076"/>
</linearGradient>
<clipPath id="clip0_851_7484">
<rect width="95.2553" height="28.2239" fill="white" transform="translate(0.363281 0.160156)"/>
</clipPath>
</defs>
</svg>
