<svg width="18" height="20" viewBox="0 0 18 20" fill="none" xmlns="http://www.w3.org/2000/svg">
<g clip-path="url(#clip0_1670_4857)">
<path d="M8.81155 5.79727C6.37593 5.79727 4.41135 7.73115 4.41135 10.1287C4.41135 12.5263 6.37593 14.4602 8.81155 14.4602C11.2472 14.4602 13.2117 12.5263 13.2117 10.1287C13.2117 7.73115 11.2472 5.79727 8.81155 5.79727ZM8.81155 12.9447C7.23758 12.9447 5.95084 11.6819 5.95084 10.1287C5.95084 8.57558 7.23375 7.31271 8.81155 7.31271C10.3893 7.31271 11.6722 8.57558 11.6722 10.1287C11.6722 11.6819 10.3855 12.9447 8.81155 12.9447ZM14.4181 5.62009C14.4181 6.18178 13.9585 6.63038 13.3917 6.63038C12.8211 6.63038 12.3654 6.17801 12.3654 5.62009C12.3654 5.06217 12.825 4.6098 13.3917 4.6098C13.9585 4.6098 14.4181 5.06217 14.4181 5.62009ZM17.3324 6.64546C17.2673 5.29212 16.9533 4.09334 15.9461 3.10566C14.9427 2.11799 13.7249 1.80887 12.3501 1.74101C10.9331 1.66185 6.68612 1.66185 5.26918 1.74101C3.89818 1.8051 2.68037 2.11422 1.67319 3.1019C0.666008 4.08957 0.355811 5.28835 0.286879 6.64169C0.206457 8.0365 0.206457 12.2172 0.286879 13.612C0.351982 14.9653 0.666008 16.1641 1.67319 17.1518C2.68037 18.1394 3.89435 18.4486 5.26918 18.5164C6.68612 18.5956 10.9331 18.5956 12.3501 18.5164C13.7249 18.4523 14.9427 18.1432 15.9461 17.1518C16.9494 16.1641 17.2635 14.9653 17.3324 13.612C17.4128 12.2172 17.4128 8.04027 17.3324 6.64546ZM15.5018 15.1086C15.2031 15.8474 14.6249 16.4167 13.8704 16.7145C12.7407 17.1555 10.06 17.0538 8.81155 17.0538C7.5631 17.0538 4.87856 17.1518 3.75266 16.7145C3.00206 16.4204 2.42379 15.8512 2.12125 15.1086C1.67319 13.9965 1.77659 11.3577 1.77659 10.1287C1.77659 8.89978 1.67702 6.25718 2.12125 5.14887C2.41996 4.41 2.99823 3.84077 3.75266 3.54296C4.88239 3.1019 7.5631 3.20368 8.81155 3.20368C10.06 3.20368 12.7445 3.10566 13.8704 3.54296C14.621 3.837 15.1993 4.40623 15.5018 5.14887C15.9499 6.26095 15.8465 8.89978 15.8465 10.1287C15.8465 11.3577 15.9499 14.0003 15.5018 15.1086Z" fill="white"/>
</g>
<defs>
<clipPath id="clip0_1670_4857">
<rect width="17.1566" height="19.3011" fill="white" transform="translate(0.228516 0.482422)"/>
</clipPath>
</defs>
</svg>
