<svg width="24" height="25" viewBox="0 0 24 25" fill="none" xmlns="http://www.w3.org/2000/svg">
<path fill-rule="evenodd" clip-rule="evenodd" d="M16 4.20703H8C5.23858 4.20703 3 6.44561 3 9.20703V17.207C3 19.9684 5.23858 22.207 8 22.207H16C18.7614 22.207 21 19.9684 21 17.207V9.20703C21 6.44561 18.7614 4.20703 16 4.20703ZM19.25 17.207C19.2445 18.9996 17.7926 20.4515 16 20.457H8C6.20735 20.4515 4.75549 18.9996 4.75 17.207V9.20703C4.75549 7.41438 6.20735 5.96252 8 5.95703H16C17.7926 5.96252 19.2445 7.41438 19.25 9.20703V17.207ZM16.75 9.45703C17.3023 9.45703 17.75 9.00931 17.75 8.45703C17.75 7.90475 17.3023 7.45703 16.75 7.45703C16.1977 7.45703 15.75 7.90475 15.75 8.45703C15.75 9.00931 16.1977 9.45703 16.75 9.45703ZM12 8.70703C9.51472 8.70703 7.5 10.7218 7.5 13.207C7.5 15.6923 9.51472 17.707 12 17.707C14.4853 17.707 16.5 15.6923 16.5 13.207C16.5027 12.0127 16.0294 10.8666 15.1849 10.0221C14.3404 9.17762 13.1943 8.70437 12 8.70703ZM9.25 13.207C9.25 14.7258 10.4812 15.957 12 15.957C13.5188 15.957 14.75 14.7258 14.75 13.207C14.75 11.6882 13.5188 10.457 12 10.457C10.4812 10.457 9.25 11.6882 9.25 13.207Z" fill="black"/>
</svg>
