<svg width="24" height="23" viewBox="0 0 24 23" fill="none" xmlns="http://www.w3.org/2000/svg">
<g clip-path="url(#clip0_1670_4863)">
<path d="M12.2077 6.17164C8.87565 6.17164 6.18796 8.41727 6.18796 11.2013C6.18796 13.9854 8.87565 16.231 12.2077 16.231C15.5398 16.231 18.2275 13.9854 18.2275 11.2013C18.2275 8.41727 15.5398 6.17164 12.2077 6.17164ZM12.2077 14.4713C10.0545 14.4713 8.2941 13.0048 8.2941 11.2013C8.2941 9.39781 10.0492 7.93137 12.2077 7.93137C14.3663 7.93137 16.1214 9.39781 16.1214 11.2013C16.1214 13.0048 14.361 14.4713 12.2077 14.4713ZM19.8778 5.9659C19.8778 6.61814 19.2492 7.13906 18.4738 7.13906C17.6931 7.13906 17.0697 6.61376 17.0697 5.9659C17.0697 5.31804 17.6984 4.79275 18.4738 4.79275C19.2492 4.79275 19.8778 5.31804 19.8778 5.9659ZM23.8648 7.15657C23.7758 5.58507 23.3462 4.19304 21.9683 3.04615C20.5956 1.89927 18.9296 1.54032 17.0487 1.46152C15.1102 1.3696 9.30002 1.3696 7.36153 1.46152C5.48592 1.53594 3.81987 1.89489 2.44198 3.04178C1.06408 4.18866 0.639712 5.58069 0.545407 7.15219C0.435385 8.77184 0.435385 13.6264 0.545407 15.2461C0.634473 16.8176 1.06408 18.2096 2.44198 19.3565C3.81987 20.5034 5.48068 20.8623 7.36153 20.9411C9.30002 21.033 15.1102 21.033 17.0487 20.9411C18.9296 20.8667 20.5956 20.5077 21.9683 19.3565C23.3409 18.2096 23.7705 16.8176 23.8648 15.2461C23.9749 13.6264 23.9749 8.77622 23.8648 7.15657ZM21.3605 16.9839C20.9519 17.8419 20.1608 18.5029 19.1287 18.8487C17.5831 19.3609 13.9157 19.2427 12.2077 19.2427C10.4998 19.2427 6.82714 19.3565 5.28683 18.8487C4.25996 18.5073 3.46885 17.8463 3.05496 16.9839C2.44198 15.6926 2.58343 12.6284 2.58343 11.2013C2.58343 9.77427 2.44722 6.70569 3.05496 5.41872C3.46361 4.56075 4.25472 3.89975 5.28683 3.55394C6.83238 3.04178 10.4998 3.15997 12.2077 3.15997C13.9157 3.15997 17.5883 3.04615 19.1287 3.55394C20.1555 3.89538 20.9466 4.55637 21.3605 5.41872C21.9735 6.71007 21.832 9.77427 21.832 11.2013C21.832 12.6284 21.9735 15.6969 21.3605 16.9839Z" fill="white"/>
</g>
<defs>
<clipPath id="clip0_1670_4863">
<rect width="23.4714" height="22.4125" fill="white" transform="translate(0.466797)"/>
</clipPath>
</defs>
</svg>
