<svg width="24" height="25" viewBox="0 0 24 25" fill="none" xmlns="http://www.w3.org/2000/svg">
<path fill-rule="evenodd" clip-rule="evenodd" d="M4.5 4.20703C3.67157 4.20703 3 4.8786 3 5.70703V20.707C3 21.5354 3.67157 22.207 4.5 22.207H19.5C20.3284 22.207 21 21.5354 21 20.707V5.70703C21 4.8786 20.3284 4.20703 19.5 4.20703H4.5ZM8.52076 8.20975C8.52639 9.166 7.81061 9.75522 6.96123 9.751C6.16107 9.74678 5.46357 9.10975 5.46779 8.21116C5.47201 7.366 6.13998 6.68678 7.00764 6.70647C7.88795 6.72616 8.52639 7.37163 8.52076 8.20975ZM12.2797 10.9688H9.75971H9.7583V19.5286H12.4217V19.3289C12.4217 18.949 12.4214 18.569 12.4211 18.1889C12.4203 17.1751 12.4194 16.1602 12.4246 15.1467C12.426 14.9006 12.4372 14.6447 12.5005 14.4098C12.7381 13.5323 13.5271 12.9656 14.4074 13.1049C14.9727 13.1934 15.3467 13.5211 15.5042 14.0541C15.6013 14.3873 15.6449 14.7459 15.6491 15.0933C15.6605 16.1409 15.6589 17.1885 15.6573 18.2362C15.6567 18.606 15.6561 18.976 15.6561 19.3458V19.5272H18.328V19.3219C18.328 18.8699 18.3278 18.418 18.3275 17.9661C18.327 16.8366 18.3264 15.7071 18.3294 14.5772C18.3308 14.0667 18.276 13.5633 18.1508 13.0697C17.9638 12.3356 17.5771 11.7281 16.9485 11.2894C16.5027 10.9772 16.0133 10.7761 15.4663 10.7536C15.404 10.751 15.3412 10.7477 15.2781 10.7442C14.9984 10.7291 14.7141 10.7138 14.4467 10.7677C13.6817 10.921 13.0096 11.2711 12.5019 11.8884C12.4429 11.9592 12.3852 12.0311 12.2991 12.1384L12.2797 12.1627V10.9688ZM5.68164 19.5314H8.33242V10.9744H5.68164V19.5314Z" fill="black"/>
</svg>
