<svg width="63" height="28" viewBox="0 0 63 28" fill="none" xmlns="http://www.w3.org/2000/svg">
<g clip-path="url(#clip0_1960_5245)">
<path d="M0.564453 21.9653H13.2485V18.4093H5.10045V1.94531H0.564453V21.9653Z" fill="black"/>
<path d="M21.5874 19.1924C19.2914 19.1924 18.0034 17.5124 18.0034 14.7124V14.4884C18.0034 11.6884 19.3474 10.0644 21.5874 10.0644C23.8554 10.0644 25.1714 11.7444 25.1714 14.5444V14.7404C25.1714 17.5124 23.8554 19.1924 21.5874 19.1924ZM21.5594 22.2724C25.9554 22.2724 29.2874 19.3324 29.2874 14.7124V14.4884C29.2874 9.92438 25.9834 6.98438 21.5874 6.98438C17.1914 6.98438 13.8594 9.98037 13.8594 14.5724V14.7964C13.8594 19.3604 17.1914 22.2724 21.5594 22.2724Z" fill="black"/>
<path d="M37.6654 27.3684C42.4814 27.3684 45.3654 25.1564 45.3934 20.8164V7.32037H41.3614V9.50438C40.5214 8.02038 39.0934 6.98438 36.7134 6.98438C33.0734 6.98438 30.2734 9.92438 30.2734 14.1244V14.3204C30.2734 18.6604 33.1014 21.3204 36.6574 21.3204C38.8134 21.3204 40.5494 20.0324 41.3614 18.6044V20.8164C41.3614 23.1124 40.1294 24.4004 37.6654 24.4004C35.5934 24.4004 34.6694 23.5604 34.4174 22.2724H30.3854C30.7774 25.2964 32.9334 27.3684 37.6654 27.3684ZM37.8614 18.2684C35.8454 18.2684 34.4174 16.7564 34.4174 14.3204V14.0964C34.4174 11.6884 35.6774 10.0644 37.9454 10.0644C40.1574 10.0644 41.4734 11.5764 41.4734 14.0684V14.2644C41.4734 16.7564 39.9894 18.2684 37.8614 18.2684Z" fill="black"/>
<path d="M54.9624 19.1924C52.6664 19.1924 51.3784 17.5124 51.3784 14.7124V14.4884C51.3784 11.6884 52.7224 10.0644 54.9624 10.0644C57.2304 10.0644 58.5464 11.7444 58.5464 14.5444V14.7404C58.5464 17.5124 57.2304 19.1924 54.9624 19.1924ZM54.9344 22.2724C59.3304 22.2724 62.6624 19.3324 62.6624 14.7124V14.4884C62.6624 9.92438 59.3584 6.98438 54.9624 6.98438C50.5664 6.98438 47.2344 9.98037 47.2344 14.5724V14.7964C47.2344 19.3604 50.5664 22.2724 54.9344 22.2724Z" fill="black"/>
</g>
<defs>
<clipPath id="clip0_1960_5245">
<rect width="63" height="27" fill="white" transform="translate(0 0.964844)"/>
</clipPath>
</defs>
</svg>
