<svg width="88" height="49" viewBox="0 0 88 49" fill="none" xmlns="http://www.w3.org/2000/svg">
<rect y="0.5" width="88" height="48" rx="24" fill="black"/>
<mask id="path-2-outside-1_1564_454" maskUnits="userSpaceOnUse" x="23" y="17.5" width="41" height="17" fill="black">
<rect fill="white" x="23" y="17.5" width="41" height="17"/>
<path d="M29.024 19.236C29.6 19.236 30.2453 19.2733 30.96 19.348C31.6853 19.412 32.3787 19.5613 33.04 19.796L32.832 22.02C32.352 22.0093 31.7547 22.004 31.04 22.004C30.336 21.9933 29.6373 21.988 28.944 21.988C28.7413 21.988 28.5707 21.9933 28.432 22.004C28.304 22.0147 28.2027 22.036 28.128 22.068C28.0533 22.1 28 22.1427 27.968 22.196C27.936 22.2493 27.92 22.3187 27.92 22.404C27.92 22.5533 27.984 22.6813 28.112 22.788C28.2507 22.884 28.5067 23.0067 28.88 23.156L30.88 23.988C31.7973 24.3827 32.4373 24.8413 32.8 25.364C33.1733 25.876 33.36 26.5373 33.36 27.348C33.36 27.9667 33.2853 28.4947 33.136 28.932C32.9867 29.3587 32.736 29.7053 32.384 29.972C32.0427 30.228 31.584 30.4147 31.008 30.532C30.432 30.66 29.712 30.724 28.848 30.724C28.4747 30.724 27.9093 30.692 27.152 30.628C26.3947 30.5747 25.536 30.4253 24.576 30.18L24.784 27.748C25.424 27.7587 26.0107 27.7747 26.544 27.796C27.0773 27.8067 27.536 27.8173 27.92 27.828C28.3147 27.828 28.608 27.828 28.8 27.828C29.0987 27.828 29.3227 27.8173 29.472 27.796C29.632 27.7747 29.7387 27.7373 29.792 27.684C29.856 27.62 29.888 27.54 29.888 27.444C29.888 27.3373 29.8667 27.252 29.824 27.188C29.7813 27.1133 29.7067 27.044 29.6 26.98C29.4933 26.916 29.3387 26.8467 29.136 26.772L26.944 25.812C26.048 25.4067 25.4133 24.9533 25.04 24.452C24.6667 23.9507 24.48 23.2947 24.48 22.484C24.48 21.8547 24.56 21.332 24.72 20.916C24.8907 20.5 25.152 20.1693 25.504 19.924C25.856 19.6787 26.32 19.5027 26.896 19.396C27.4827 19.2893 28.192 19.236 29.024 19.236ZM40.6936 22.276C42.2723 22.276 43.0616 23.0227 43.0616 24.516V30.5H39.7016V25.588C39.7016 25.4067 39.659 25.284 39.5736 25.22C39.4883 25.1453 39.339 25.108 39.1256 25.108C38.923 25.108 38.6936 25.124 38.4376 25.156C38.1923 25.188 37.867 25.2733 37.4616 25.412L37.1096 23.956C37.675 23.3907 38.267 22.9693 38.8856 22.692C39.515 22.4147 40.1176 22.276 40.6936 22.276ZM37.8136 19.3L37.8296 21.684C37.8296 22.164 37.7923 22.628 37.7176 23.076C37.6536 23.5133 37.579 23.8653 37.4936 24.132L37.8136 24.324V30.5H34.4536V19.3H37.8136ZM48.5991 22.276C49.6871 22.276 50.5565 22.4147 51.2071 22.692C51.8685 22.9587 52.3431 23.4013 52.6311 24.02C52.9191 24.6387 53.0631 25.4707 53.0631 26.516C53.0631 27.54 52.9191 28.356 52.6311 28.964C52.3431 29.572 51.8685 30.0147 51.2071 30.292C50.5565 30.5587 49.6871 30.692 48.5991 30.692C47.5111 30.692 46.6365 30.5587 45.9751 30.292C45.3245 30.0147 44.8498 29.572 44.5511 28.964C44.2631 28.356 44.1191 27.54 44.1191 26.516C44.1191 25.4707 44.2631 24.6387 44.5511 24.02C44.8498 23.4013 45.3245 22.9587 45.9751 22.692C46.6365 22.4147 47.5111 22.276 48.5991 22.276ZM48.5991 24.548C48.3431 24.548 48.1458 24.6013 48.0071 24.708C47.8685 24.804 47.7725 24.9907 47.7191 25.268C47.6658 25.5453 47.6391 25.9613 47.6391 26.516C47.6391 27.0493 47.6658 27.4547 47.7191 27.732C47.7725 27.9987 47.8685 28.18 48.0071 28.276C48.1458 28.372 48.3431 28.42 48.5991 28.42C48.8551 28.42 49.0525 28.372 49.1911 28.276C49.3298 28.18 49.4205 27.9987 49.4631 27.732C49.5165 27.4547 49.5431 27.0493 49.5431 26.516C49.5431 25.9613 49.5165 25.5453 49.4631 25.268C49.4205 24.9907 49.3298 24.804 49.1911 24.708C49.0525 24.6013 48.8551 24.548 48.5991 24.548ZM60.0764 22.308C61.1217 22.308 61.863 22.6813 62.3004 23.428C62.7377 24.1747 62.9564 25.2307 62.9564 26.596C62.9564 27.6947 62.839 28.5427 62.6044 29.14C62.3804 29.7373 62.0444 30.1533 61.5964 30.388C61.1484 30.612 60.5937 30.724 59.9324 30.724C59.3244 30.724 58.7537 30.6333 58.2204 30.452C57.6977 30.2707 57.2764 29.956 56.9564 29.508L57.1804 28.196C57.3937 28.2707 57.5964 28.3453 57.7884 28.42C57.991 28.4947 58.2577 28.532 58.5884 28.532C58.8124 28.532 58.9884 28.4947 59.1164 28.42C59.255 28.3347 59.351 28.1587 59.4044 27.892C59.4684 27.6147 59.5004 27.1933 59.5004 26.628C59.5004 26.052 59.4684 25.6307 59.4044 25.364C59.351 25.0867 59.2604 24.9107 59.1324 24.836C59.0044 24.7613 58.839 24.724 58.6364 24.724C58.359 24.724 58.1404 24.756 57.9804 24.82C57.8204 24.8733 57.655 24.9427 57.4844 25.028L57.0204 23.764C57.159 23.4973 57.3777 23.2573 57.6764 23.044C57.9857 22.82 58.3484 22.644 58.7644 22.516C59.1804 22.3773 59.6177 22.308 60.0764 22.308ZM56.8604 22.5L57.1804 23.764L57.5324 24.02V29.316L57.4364 29.508C57.4684 29.8493 57.495 30.2227 57.5164 30.628C57.5377 31.0333 57.543 31.4227 57.5324 31.796V33.38H54.1724V22.5H56.8604Z"/>
</mask>
<path d="M29.024 19.236C29.6 19.236 30.2453 19.2733 30.96 19.348C31.6853 19.412 32.3787 19.5613 33.04 19.796L32.832 22.02C32.352 22.0093 31.7547 22.004 31.04 22.004C30.336 21.9933 29.6373 21.988 28.944 21.988C28.7413 21.988 28.5707 21.9933 28.432 22.004C28.304 22.0147 28.2027 22.036 28.128 22.068C28.0533 22.1 28 22.1427 27.968 22.196C27.936 22.2493 27.92 22.3187 27.92 22.404C27.92 22.5533 27.984 22.6813 28.112 22.788C28.2507 22.884 28.5067 23.0067 28.88 23.156L30.88 23.988C31.7973 24.3827 32.4373 24.8413 32.8 25.364C33.1733 25.876 33.36 26.5373 33.36 27.348C33.36 27.9667 33.2853 28.4947 33.136 28.932C32.9867 29.3587 32.736 29.7053 32.384 29.972C32.0427 30.228 31.584 30.4147 31.008 30.532C30.432 30.66 29.712 30.724 28.848 30.724C28.4747 30.724 27.9093 30.692 27.152 30.628C26.3947 30.5747 25.536 30.4253 24.576 30.18L24.784 27.748C25.424 27.7587 26.0107 27.7747 26.544 27.796C27.0773 27.8067 27.536 27.8173 27.92 27.828C28.3147 27.828 28.608 27.828 28.8 27.828C29.0987 27.828 29.3227 27.8173 29.472 27.796C29.632 27.7747 29.7387 27.7373 29.792 27.684C29.856 27.62 29.888 27.54 29.888 27.444C29.888 27.3373 29.8667 27.252 29.824 27.188C29.7813 27.1133 29.7067 27.044 29.6 26.98C29.4933 26.916 29.3387 26.8467 29.136 26.772L26.944 25.812C26.048 25.4067 25.4133 24.9533 25.04 24.452C24.6667 23.9507 24.48 23.2947 24.48 22.484C24.48 21.8547 24.56 21.332 24.72 20.916C24.8907 20.5 25.152 20.1693 25.504 19.924C25.856 19.6787 26.32 19.5027 26.896 19.396C27.4827 19.2893 28.192 19.236 29.024 19.236ZM40.6936 22.276C42.2723 22.276 43.0616 23.0227 43.0616 24.516V30.5H39.7016V25.588C39.7016 25.4067 39.659 25.284 39.5736 25.22C39.4883 25.1453 39.339 25.108 39.1256 25.108C38.923 25.108 38.6936 25.124 38.4376 25.156C38.1923 25.188 37.867 25.2733 37.4616 25.412L37.1096 23.956C37.675 23.3907 38.267 22.9693 38.8856 22.692C39.515 22.4147 40.1176 22.276 40.6936 22.276ZM37.8136 19.3L37.8296 21.684C37.8296 22.164 37.7923 22.628 37.7176 23.076C37.6536 23.5133 37.579 23.8653 37.4936 24.132L37.8136 24.324V30.5H34.4536V19.3H37.8136ZM48.5991 22.276C49.6871 22.276 50.5565 22.4147 51.2071 22.692C51.8685 22.9587 52.3431 23.4013 52.6311 24.02C52.9191 24.6387 53.0631 25.4707 53.0631 26.516C53.0631 27.54 52.9191 28.356 52.6311 28.964C52.3431 29.572 51.8685 30.0147 51.2071 30.292C50.5565 30.5587 49.6871 30.692 48.5991 30.692C47.5111 30.692 46.6365 30.5587 45.9751 30.292C45.3245 30.0147 44.8498 29.572 44.5511 28.964C44.2631 28.356 44.1191 27.54 44.1191 26.516C44.1191 25.4707 44.2631 24.6387 44.5511 24.02C44.8498 23.4013 45.3245 22.9587 45.9751 22.692C46.6365 22.4147 47.5111 22.276 48.5991 22.276ZM48.5991 24.548C48.3431 24.548 48.1458 24.6013 48.0071 24.708C47.8685 24.804 47.7725 24.9907 47.7191 25.268C47.6658 25.5453 47.6391 25.9613 47.6391 26.516C47.6391 27.0493 47.6658 27.4547 47.7191 27.732C47.7725 27.9987 47.8685 28.18 48.0071 28.276C48.1458 28.372 48.3431 28.42 48.5991 28.42C48.8551 28.42 49.0525 28.372 49.1911 28.276C49.3298 28.18 49.4205 27.9987 49.4631 27.732C49.5165 27.4547 49.5431 27.0493 49.5431 26.516C49.5431 25.9613 49.5165 25.5453 49.4631 25.268C49.4205 24.9907 49.3298 24.804 49.1911 24.708C49.0525 24.6013 48.8551 24.548 48.5991 24.548ZM60.0764 22.308C61.1217 22.308 61.863 22.6813 62.3004 23.428C62.7377 24.1747 62.9564 25.2307 62.9564 26.596C62.9564 27.6947 62.839 28.5427 62.6044 29.14C62.3804 29.7373 62.0444 30.1533 61.5964 30.388C61.1484 30.612 60.5937 30.724 59.9324 30.724C59.3244 30.724 58.7537 30.6333 58.2204 30.452C57.6977 30.2707 57.2764 29.956 56.9564 29.508L57.1804 28.196C57.3937 28.2707 57.5964 28.3453 57.7884 28.42C57.991 28.4947 58.2577 28.532 58.5884 28.532C58.8124 28.532 58.9884 28.4947 59.1164 28.42C59.255 28.3347 59.351 28.1587 59.4044 27.892C59.4684 27.6147 59.5004 27.1933 59.5004 26.628C59.5004 26.052 59.4684 25.6307 59.4044 25.364C59.351 25.0867 59.2604 24.9107 59.1324 24.836C59.0044 24.7613 58.839 24.724 58.6364 24.724C58.359 24.724 58.1404 24.756 57.9804 24.82C57.8204 24.8733 57.655 24.9427 57.4844 25.028L57.0204 23.764C57.159 23.4973 57.3777 23.2573 57.6764 23.044C57.9857 22.82 58.3484 22.644 58.7644 22.516C59.1804 22.3773 59.6177 22.308 60.0764 22.308ZM56.8604 22.5L57.1804 23.764L57.5324 24.02V29.316L57.4364 29.508C57.4684 29.8493 57.495 30.2227 57.5164 30.628C57.5377 31.0333 57.543 31.4227 57.5324 31.796V33.38H54.1724V22.5H56.8604Z" fill="url(#paint0_linear_1564_454)"/>
<path d="M30.96 19.348L30.8561 20.3426L30.8641 20.3434L30.8721 20.3441L30.96 19.348ZM33.04 19.796L34.0357 19.8891L34.1082 19.1139L33.3744 18.8536L33.04 19.796ZM32.832 22.02L32.8098 23.0198L33.7409 23.0404L33.8277 22.1131L32.832 22.02ZM31.04 22.004L31.0249 23.0039L31.0324 23.004H31.04V22.004ZM28.432 22.004L28.3553 21.0069L28.349 21.0075L28.432 22.004ZM28.128 22.068L28.5219 22.9871L28.5219 22.9871L28.128 22.068ZM27.968 22.196L27.1105 21.6815L27.1105 21.6815L27.968 22.196ZM28.112 22.788L27.4718 23.5562L27.5061 23.5848L27.5428 23.6102L28.112 22.788ZM28.88 23.156L29.2641 22.2326L29.2514 22.2275L28.88 23.156ZM30.88 23.988L31.2752 23.0693L31.2641 23.0647L30.88 23.988ZM32.8 25.364L31.9784 25.9341L31.9851 25.9437L31.992 25.9532L32.8 25.364ZM33.136 28.932L34.0799 29.2624L34.0824 29.2551L33.136 28.932ZM32.384 29.972L32.984 30.772L32.9879 30.7691L32.384 29.972ZM31.008 30.532L30.8084 29.5521L30.7997 29.5539L30.7911 29.5558L31.008 30.532ZM27.152 30.628L27.2362 29.6315L27.2222 29.6305L27.152 30.628ZM24.576 30.18L23.5796 30.0948L23.5074 30.9391L24.3284 31.1489L24.576 30.18ZM24.784 27.748L24.8007 26.7481L23.8672 26.7326L23.7876 27.6628L24.784 27.748ZM26.544 27.796L26.504 28.7952L26.514 28.7956L26.524 28.7958L26.544 27.796ZM27.92 27.828L27.8922 28.8276L27.9061 28.828H27.92V27.828ZM29.472 27.796L29.3398 26.8047L29.3306 26.8061L29.472 27.796ZM29.792 27.684L29.0849 26.9769L29.0849 26.9769L29.792 27.684ZM29.824 27.188L28.9558 27.6841L28.9728 27.714L28.992 27.7427L29.824 27.188ZM29.6 26.98L30.1145 26.1225L30.1145 26.1225L29.6 26.98ZM29.136 26.772L28.7348 27.688L28.7622 27.7L28.7903 27.7103L29.136 26.772ZM26.944 25.812L26.5318 26.7232L26.5428 26.728L26.944 25.812ZM25.04 24.452L25.842 23.8547L25.04 24.452ZM24.72 20.916L23.7948 20.5364L23.7906 20.5467L23.7867 20.557L24.72 20.916ZM26.896 19.396L26.7171 18.4121L26.7139 18.4127L26.896 19.396ZM29.024 20.236C29.5581 20.236 30.1679 20.2707 30.8561 20.3426L31.0639 18.3534C30.3228 18.276 29.6419 18.236 29.024 18.236V20.236ZM30.8721 20.3441C31.5165 20.401 32.1268 20.533 32.7056 20.7384L33.3744 18.8536C32.6306 18.5896 31.8542 18.423 31.0479 18.3519L30.8721 20.3441ZM32.0443 19.7029L31.8363 21.9269L33.8277 22.1131L34.0357 19.8891L32.0443 19.7029ZM32.8542 21.0202C32.3642 21.0094 31.7589 21.004 31.04 21.004V23.004C31.7505 23.004 32.3398 23.0093 32.8098 23.0198L32.8542 21.0202ZM31.0552 21.0041C30.3462 20.9934 29.6425 20.988 28.944 20.988V22.988C29.6322 22.988 30.3258 22.9933 31.0249 23.0039L31.0552 21.0041ZM28.944 20.988C28.7262 20.988 28.5281 20.9937 28.3553 21.0069L28.5087 23.0011C28.6132 22.993 28.7565 22.988 28.944 22.988V20.988ZM28.349 21.0075C28.1685 21.0225 27.9478 21.0573 27.7341 21.1489L28.5219 22.9871C28.5026 22.9954 28.4878 23.0004 28.479 23.003C28.4701 23.0057 28.4655 23.0067 28.466 23.0065C28.4664 23.0065 28.4707 23.0056 28.4792 23.0044C28.4877 23.0032 28.4995 23.0018 28.515 23.0005L28.349 21.0075ZM27.7341 21.1489C27.5251 21.2384 27.2795 21.3998 27.1105 21.6815L28.8255 22.7105C28.7205 22.8855 28.5816 22.9616 28.5219 22.9871L27.7341 21.1489ZM27.1105 21.6815C26.9568 21.9377 26.92 22.2022 26.92 22.404H28.92C28.92 22.4352 28.9152 22.561 28.8255 22.7105L27.1105 21.6815ZM26.92 22.404C26.92 22.8868 27.1456 23.2844 27.4718 23.5562L28.7522 22.0198C28.7769 22.0404 28.8234 22.0868 28.8624 22.1648C28.9029 22.2457 28.92 22.3304 28.92 22.404H26.92ZM27.5428 23.6102C27.7837 23.777 28.1348 23.935 28.5086 24.0845L29.2514 22.2275C29.0776 22.158 28.9419 22.0989 28.8401 22.0502C28.7896 22.026 28.751 22.006 28.7226 21.9903C28.7086 21.9825 28.6982 21.9764 28.6909 21.972C28.6836 21.9675 28.6806 21.9654 28.6812 21.9658L27.5428 23.6102ZM28.4959 24.0793L30.4959 24.9113L31.2641 23.0647L29.2641 22.2327L28.4959 24.0793ZM30.4848 24.9066C31.3199 25.2659 31.767 25.6294 31.9784 25.9341L33.6216 24.7939C33.1077 24.0532 32.2748 23.4995 31.2752 23.0694L30.4848 24.9066ZM31.992 25.9532C32.2096 26.2516 32.36 26.6897 32.36 27.348H34.36C34.36 26.385 34.1371 25.5004 33.608 24.7748L31.992 25.9532ZM32.36 27.348C32.36 27.8916 32.2937 28.3041 32.1897 28.6089L34.0824 29.2551C34.2769 28.6853 34.36 28.0418 34.36 27.348H32.36ZM32.1921 28.6017C32.1061 28.8473 31.9715 29.0299 31.7801 29.1749L32.9879 30.7691C33.5005 30.3807 33.8672 29.87 34.0799 29.2624L32.1921 28.6017ZM31.784 29.172C31.5971 29.3122 31.2909 29.4538 30.8084 29.5521L31.2076 31.5119C31.8771 31.3755 32.4882 31.1438 32.984 30.772L31.784 29.172ZM30.7911 29.5558C30.3108 29.6625 29.6694 29.724 28.848 29.724V31.724C29.7546 31.724 30.5532 31.6575 31.2249 31.5082L30.7911 29.5558ZM28.848 29.724C28.5187 29.724 27.9879 29.6951 27.2362 29.6316L27.0678 31.6244C27.8307 31.6889 28.4306 31.724 28.848 31.724V29.724ZM27.2222 29.6305C26.5397 29.5824 25.742 29.4458 24.8236 29.2111L24.3284 31.1489C25.33 31.4048 26.2497 31.5669 27.0818 31.6255L27.2222 29.6305ZM25.5724 30.2652L25.7804 27.8332L23.7876 27.6628L23.5796 30.0948L25.5724 30.2652ZM24.7673 28.7479C25.401 28.7584 25.9798 28.7742 26.504 28.7952L26.584 26.7968C26.0415 26.7751 25.447 26.7589 24.8007 26.7481L24.7673 28.7479ZM26.524 28.7958C27.0557 28.8064 27.5116 28.817 27.8922 28.8276L27.9478 26.8284C27.5604 26.8176 27.099 26.8069 26.564 26.7962L26.524 28.7958ZM27.92 28.828C27.9208 28.828 27.9215 28.828 27.9223 28.828C27.9231 28.828 27.9239 28.828 27.9246 28.828C27.9254 28.828 27.9262 28.828 27.9269 28.828C27.9277 28.828 27.9285 28.828 27.9292 28.828C27.93 28.828 27.9308 28.828 27.9315 28.828C27.9323 28.828 27.9331 28.828 27.9338 28.828C27.9346 28.828 27.9354 28.828 27.9361 28.828C27.9369 28.828 27.9377 28.828 27.9384 28.828C27.9392 28.828 27.94 28.828 27.9407 28.828C27.9415 28.828 27.9422 28.828 27.943 28.828C27.9438 28.828 27.9445 28.828 27.9453 28.828C27.9461 28.828 27.9468 28.828 27.9476 28.828C27.9483 28.828 27.9491 28.828 27.9499 28.828C27.9506 28.828 27.9514 28.828 27.9521 28.828C27.9529 28.828 27.9537 28.828 27.9544 28.828C27.9552 28.828 27.9559 28.828 27.9567 28.828C27.9575 28.828 27.9582 28.828 27.959 28.828C27.9597 28.828 27.9605 28.828 27.9612 28.828C27.962 28.828 27.9628 28.828 27.9635 28.828C27.9643 28.828 27.965 28.828 27.9658 28.828C27.9665 28.828 27.9673 28.828 27.9681 28.828C27.9688 28.828 27.9696 28.828 27.9703 28.828C27.9711 28.828 27.9718 28.828 27.9726 28.828C27.9733 28.828 27.9741 28.828 27.9748 28.828C27.9756 28.828 27.9763 28.828 27.9771 28.828C27.9778 28.828 27.9786 28.828 27.9793 28.828C27.9801 28.828 27.9808 28.828 27.9816 28.828C27.9823 28.828 27.9831 28.828 27.9838 28.828C27.9846 28.828 27.9853 28.828 27.9861 28.828C27.9868 28.828 27.9876 28.828 27.9883 28.828C27.9891 28.828 27.9898 28.828 27.9906 28.828C27.9913 28.828 27.9921 28.828 27.9928 28.828C27.9936 28.828 27.9943 28.828 27.995 28.828C27.9958 28.828 27.9965 28.828 27.9973 28.828C27.998 28.828 27.9988 28.828 27.9995 28.828C28.0003 28.828 28.001 28.828 28.0017 28.828C28.0025 28.828 28.0032 28.828 28.004 28.828C28.0047 28.828 28.0055 28.828 28.0062 28.828C28.0069 28.828 28.0077 28.828 28.0084 28.828C28.0092 28.828 28.0099 28.828 28.0106 28.828C28.0114 28.828 28.0121 28.828 28.0129 28.828C28.0136 28.828 28.0143 28.828 28.0151 28.828C28.0158 28.828 28.0166 28.828 28.0173 28.828C28.018 28.828 28.0188 28.828 28.0195 28.828C28.0202 28.828 28.021 28.828 28.0217 28.828C28.0225 28.828 28.0232 28.828 28.0239 28.828C28.0247 28.828 28.0254 28.828 28.0261 28.828C28.0269 28.828 28.0276 28.828 28.0283 28.828C28.0291 28.828 28.0298 28.828 28.0305 28.828C28.0313 28.828 28.032 28.828 28.0327 28.828C28.0335 28.828 28.0342 28.828 28.0349 28.828C28.0357 28.828 28.0364 28.828 28.0371 28.828C28.0378 28.828 28.0386 28.828 28.0393 28.828C28.04 28.828 28.0408 28.828 28.0415 28.828C28.0422 28.828 28.043 28.828 28.0437 28.828C28.0444 28.828 28.0451 28.828 28.0459 28.828C28.0466 28.828 28.0473 28.828 28.048 28.828C28.0488 28.828 28.0495 28.828 28.0502 28.828C28.051 28.828 28.0517 28.828 28.0524 28.828C28.0531 28.828 28.0539 28.828 28.0546 28.828C28.0553 28.828 28.056 28.828 28.0567 28.828C28.0575 28.828 28.0582 28.828 28.0589 28.828C28.0596 28.828 28.0604 28.828 28.0611 28.828C28.0618 28.828 28.0625 28.828 28.0633 28.828C28.064 28.828 28.0647 28.828 28.0654 28.828C28.0661 28.828 28.0669 28.828 28.0676 28.828C28.0683 28.828 28.069 28.828 28.0697 28.828C28.0705 28.828 28.0712 28.828 28.0719 28.828C28.0726 28.828 28.0733 28.828 28.074 28.828C28.0748 28.828 28.0755 28.828 28.0762 28.828C28.0769 28.828 28.0776 28.828 28.0783 28.828C28.0791 28.828 28.0798 28.828 28.0805 28.828C28.0812 28.828 28.0819 28.828 28.0826 28.828C28.0833 28.828 28.0841 28.828 28.0848 28.828C28.0855 28.828 28.0862 28.828 28.0869 28.828C28.0876 28.828 28.0883 28.828 28.0891 28.828C28.0898 28.828 28.0905 28.828 28.0912 28.828C28.0919 28.828 28.0926 28.828 28.0933 28.828C28.094 28.828 28.0947 28.828 28.0954 28.828C28.0962 28.828 28.0969 28.828 28.0976 28.828C28.0983 28.828 28.099 28.828 28.0997 28.828C28.1004 28.828 28.1011 28.828 28.1018 28.828C28.1025 28.828 28.1032 28.828 28.1039 28.828C28.1047 28.828 28.1054 28.828 28.1061 28.828C28.1068 28.828 28.1075 28.828 28.1082 28.828C28.1089 28.828 28.1096 28.828 28.1103 28.828C28.111 28.828 28.1117 28.828 28.1124 28.828C28.1131 28.828 28.1138 28.828 28.1145 28.828C28.1152 28.828 28.1159 28.828 28.1166 28.828C28.1173 28.828 28.118 28.828 28.1187 28.828C28.1194 28.828 28.1201 28.828 28.1208 28.828C28.1215 28.828 28.1222 28.828 28.1229 28.828C28.1236 28.828 28.1243 28.828 28.125 28.828C28.1257 28.828 28.1264 28.828 28.1271 28.828C28.1278 28.828 28.1285 28.828 28.1292 28.828C28.1299 28.828 28.1306 28.828 28.1313 28.828C28.132 28.828 28.1327 28.828 28.1334 28.828C28.1341 28.828 28.1348 28.828 28.1355 28.828C28.1362 28.828 28.1369 28.828 28.1376 28.828C28.1383 28.828 28.139 28.828 28.1397 28.828C28.1403 28.828 28.141 28.828 28.1417 28.828C28.1424 28.828 28.1431 28.828 28.1438 28.828C28.1445 28.828 28.1452 28.828 28.1459 28.828C28.1466 28.828 28.1473 28.828 28.148 28.828C28.1486 28.828 28.1493 28.828 28.15 28.828C28.1507 28.828 28.1514 28.828 28.1521 28.828C28.1528 28.828 28.1535 28.828 28.1542 28.828C28.1548 28.828 28.1555 28.828 28.1562 28.828C28.1569 28.828 28.1576 28.828 28.1583 28.828C28.159 28.828 28.1597 28.828 28.1603 28.828C28.161 28.828 28.1617 28.828 28.1624 28.828C28.1631 28.828 28.1638 28.828 28.1645 28.828C28.1651 28.828 28.1658 28.828 28.1665 28.828C28.1672 28.828 28.1679 28.828 28.1686 28.828C28.1692 28.828 28.1699 28.828 28.1706 28.828C28.1713 28.828 28.172 28.828 28.1726 28.828C28.1733 28.828 28.174 28.828 28.1747 28.828C28.1754 28.828 28.176 28.828 28.1767 28.828C28.1774 28.828 28.1781 28.828 28.1788 28.828C28.1794 28.828 28.1801 28.828 28.1808 28.828C28.1815 28.828 28.1822 28.828 28.1828 28.828C28.1835 28.828 28.1842 28.828 28.1849 28.828C28.1855 28.828 28.1862 28.828 28.1869 28.828C28.1876 28.828 28.1882 28.828 28.1889 28.828C28.1896 28.828 28.1903 28.828 28.1909 28.828C28.1916 28.828 28.1923 28.828 28.193 28.828C28.1936 28.828 28.1943 28.828 28.195 28.828C28.1957 28.828 28.1963 28.828 28.197 28.828C28.1977 28.828 28.1983 28.828 28.199 28.828C28.1997 28.828 28.2004 28.828 28.201 28.828C28.2017 28.828 28.2024 28.828 28.203 28.828C28.2037 28.828 28.2044 28.828 28.205 28.828C28.2057 28.828 28.2064 28.828 28.207 28.828C28.2077 28.828 28.2084 28.828 28.2091 28.828C28.2097 28.828 28.2104 28.828 28.2111 28.828C28.2117 28.828 28.2124 28.828 28.2131 28.828C28.2137 28.828 28.2144 28.828 28.215 28.828C28.2157 28.828 28.2164 28.828 28.217 28.828C28.2177 28.828 28.2184 28.828 28.219 28.828C28.2197 28.828 28.2204 28.828 28.221 28.828C28.2217 28.828 28.2223 28.828 28.223 28.828C28.2237 28.828 28.2243 28.828 28.225 28.828C28.2257 28.828 28.2263 28.828 28.227 28.828C28.2276 28.828 28.2283 28.828 28.229 28.828C28.2296 28.828 28.2303 28.828 28.2309 28.828C28.2316 28.828 28.2322 28.828 28.2329 28.828C28.2336 28.828 28.2342 28.828 28.2349 28.828C28.2355 28.828 28.2362 28.828 28.2368 28.828C28.2375 28.828 28.2382 28.828 28.2388 28.828C28.2395 28.828 28.2401 28.828 28.2408 28.828C28.2414 28.828 28.2421 28.828 28.2427 28.828C28.2434 28.828 28.2441 28.828 28.2447 28.828C28.2454 28.828 28.246 28.828 28.2467 28.828C28.2473 28.828 28.248 28.828 28.2486 28.828C28.2493 28.828 28.2499 28.828 28.2506 28.828C28.2512 28.828 28.2519 28.828 28.2525 28.828C28.2532 28.828 28.2538 28.828 28.2545 28.828C28.2551 28.828 28.2558 28.828 28.2564 28.828C28.2571 28.828 28.2577 28.828 28.2584 28.828C28.259 28.828 28.2597 28.828 28.2603 28.828C28.261 28.828 28.2616 28.828 28.2623 28.828C28.2629 28.828 28.2635 28.828 28.2642 28.828C28.2648 28.828 28.2655 28.828 28.2661 28.828C28.2668 28.828 28.2674 28.828 28.2681 28.828C28.2687 28.828 28.2693 28.828 28.27 28.828C28.2706 28.828 28.2713 28.828 28.2719 28.828C28.2726 28.828 28.2732 28.828 28.2738 28.828C28.2745 28.828 28.2751 28.828 28.2758 28.828C28.2764 28.828 28.2771 28.828 28.2777 28.828C28.2783 28.828 28.279 28.828 28.2796 28.828C28.2803 28.828 28.2809 28.828 28.2815 28.828C28.2822 28.828 28.2828 28.828 28.2834 28.828C28.2841 28.828 28.2847 28.828 28.2854 28.828C28.286 28.828 28.2866 28.828 28.2873 28.828C28.2879 28.828 28.2885 28.828 28.2892 28.828C28.2898 28.828 28.2904 28.828 28.2911 28.828C28.2917 28.828 28.2923 28.828 28.293 28.828C28.2936 28.828 28.2942 28.828 28.2949 28.828C28.2955 28.828 28.2961 28.828 28.2968 28.828C28.2974 28.828 28.298 28.828 28.2987 28.828C28.2993 28.828 28.2999 28.828 28.3006 28.828C28.3012 28.828 28.3018 28.828 28.3025 28.828C28.3031 28.828 28.3037 28.828 28.3044 28.828C28.305 28.828 28.3056 28.828 28.3062 28.828C28.3069 28.828 28.3075 28.828 28.3081 28.828C28.3088 28.828 28.3094 28.828 28.31 28.828C28.3106 28.828 28.3113 28.828 28.3119 28.828C28.3125 28.828 28.3131 28.828 28.3138 28.828C28.3144 28.828 28.315 28.828 28.3156 28.828C28.3163 28.828 28.3169 28.828 28.3175 28.828C28.3181 28.828 28.3188 28.828 28.3194 28.828C28.32 28.828 28.3206 28.828 28.3212 28.828C28.3219 28.828 28.3225 28.828 28.3231 28.828C28.3237 28.828 28.3244 28.828 28.325 28.828C28.3256 28.828 28.3262 28.828 28.3268 28.828C28.3275 28.828 28.3281 28.828 28.3287 28.828C28.3293 28.828 28.3299 28.828 28.3306 28.828C28.3312 28.828 28.3318 28.828 28.3324 28.828C28.333 28.828 28.3336 28.828 28.3343 28.828C28.3349 28.828 28.3355 28.828 28.3361 28.828C28.3367 28.828 28.3373 28.828 28.338 28.828C28.3386 28.828 28.3392 28.828 28.3398 28.828C28.3404 28.828 28.341 28.828 28.3416 28.828C28.3423 28.828 28.3429 28.828 28.3435 28.828C28.3441 28.828 28.3447 28.828 28.3453 28.828C28.3459 28.828 28.3466 28.828 28.3472 28.828C28.3478 28.828 28.3484 28.828 28.349 28.828C28.3496 28.828 28.3502 28.828 28.3508 28.828C28.3514 28.828 28.352 28.828 28.3527 28.828C28.3533 28.828 28.3539 28.828 28.3545 28.828C28.3551 28.828 28.3557 28.828 28.3563 28.828C28.3569 28.828 28.3575 28.828 28.3581 28.828C28.3587 28.828 28.3593 28.828 28.3599 28.828C28.3606 28.828 28.3612 28.828 28.3618 28.828C28.3624 28.828 28.363 28.828 28.3636 28.828C28.3642 28.828 28.3648 28.828 28.3654 28.828C28.366 28.828 28.3666 28.828 28.3672 28.828C28.3678 28.828 28.3684 28.828 28.369 28.828C28.3696 28.828 28.3702 28.828 28.3708 28.828C28.3714 28.828 28.372 28.828 28.3726 28.828C28.3732 28.828 28.3738 28.828 28.3744 28.828C28.375 28.828 28.3756 28.828 28.3762 28.828C28.3768 28.828 28.3774 28.828 28.378 28.828C28.3786 28.828 28.3792 28.828 28.3798 28.828C28.3804 28.828 28.381 28.828 28.3816 28.828C28.3822 28.828 28.3828 28.828 28.3834 28.828C28.384 28.828 28.3846 28.828 28.3852 28.828C28.3858 28.828 28.3864 28.828 28.387 28.828C28.3876 28.828 28.3882 28.828 28.3887 28.828C28.3893 28.828 28.3899 28.828 28.3905 28.828C28.3911 28.828 28.3917 28.828 28.3923 28.828C28.3929 28.828 28.3935 28.828 28.3941 28.828C28.3947 28.828 28.3953 28.828 28.3959 28.828C28.3964 28.828 28.397 28.828 28.3976 28.828C28.3982 28.828 28.3988 28.828 28.3994 28.828C28.4 28.828 28.4006 28.828 28.4012 28.828C28.4017 28.828 28.4023 28.828 28.4029 28.828C28.4035 28.828 28.4041 28.828 28.4047 28.828C28.4053 28.828 28.4059 28.828 28.4064 28.828C28.407 28.828 28.4076 28.828 28.4082 28.828C28.4088 28.828 28.4094 28.828 28.41 28.828C28.4105 28.828 28.4111 28.828 28.4117 28.828C28.4123 28.828 28.4129 28.828 28.4135 28.828C28.414 28.828 28.4146 28.828 28.4152 28.828C28.4158 28.828 28.4164 28.828 28.417 28.828C28.4175 28.828 28.4181 28.828 28.4187 28.828C28.4193 28.828 28.4199 28.828 28.4204 28.828C28.421 28.828 28.4216 28.828 28.4222 28.828C28.4228 28.828 28.4233 28.828 28.4239 28.828C28.4245 28.828 28.4251 28.828 28.4256 28.828C28.4262 28.828 28.4268 28.828 28.4274 28.828C28.428 28.828 28.4285 28.828 28.4291 28.828C28.4297 28.828 28.4303 28.828 28.4308 28.828C28.4314 28.828 28.432 28.828 28.4326 28.828C28.4331 28.828 28.4337 28.828 28.4343 28.828C28.4349 28.828 28.4354 28.828 28.436 28.828C28.4366 28.828 28.4371 28.828 28.4377 28.828C28.4383 28.828 28.4389 28.828 28.4394 28.828C28.44 28.828 28.4406 28.828 28.4411 28.828C28.4417 28.828 28.4423 28.828 28.4429 28.828C28.4434 28.828 28.444 28.828 28.4446 28.828C28.4451 28.828 28.4457 28.828 28.4463 28.828C28.4468 28.828 28.4474 28.828 28.448 28.828C28.4485 28.828 28.4491 28.828 28.4497 28.828C28.4502 28.828 28.4508 28.828 28.4514 28.828C28.4519 28.828 28.4525 28.828 28.4531 28.828C28.4536 28.828 28.4542 28.828 28.4548 28.828C28.4553 28.828 28.4559 28.828 28.4565 28.828C28.457 28.828 28.4576 28.828 28.4581 28.828C28.4587 28.828 28.4593 28.828 28.4598 28.828C28.4604 28.828 28.461 28.828 28.4615 28.828C28.4621 28.828 28.4626 28.828 28.4632 28.828C28.4638 28.828 28.4643 28.828 28.4649 28.828C28.4654 28.828 28.466 28.828 28.4666 28.828C28.4671 28.828 28.4677 28.828 28.4682 28.828C28.4688 28.828 28.4694 28.828 28.4699 28.828C28.4705 28.828 28.471 28.828 28.4716 28.828C28.4721 28.828 28.4727 28.828 28.4733 28.828C28.4738 28.828 28.4744 28.828 28.4749 28.828C28.4755 28.828 28.476 28.828 28.4766 28.828C28.4771 28.828 28.4777 28.828 28.4782 28.828C28.4788 28.828 28.4794 28.828 28.4799 28.828C28.4805 28.828 28.481 28.828 28.4816 28.828C28.4821 28.828 28.4827 28.828 28.4832 28.828C28.4838 28.828 28.4843 28.828 28.4849 28.828C28.4854 28.828 28.486 28.828 28.4865 28.828C28.4871 28.828 28.4876 28.828 28.4882 28.828C28.4887 28.828 28.4893 28.828 28.4898 28.828C28.4904 28.828 28.4909 28.828 28.4915 28.828C28.492 28.828 28.4926 28.828 28.4931 28.828C28.4936 28.828 28.4942 28.828 28.4947 28.828C28.4953 28.828 28.4958 28.828 28.4964 28.828C28.4969 28.828 28.4975 28.828 28.498 28.828C28.4986 28.828 28.4991 28.828 28.4996 28.828C28.5002 28.828 28.5007 28.828 28.5013 28.828C28.5018 28.828 28.5024 28.828 28.5029 28.828C28.5034 28.828 28.504 28.828 28.5045 28.828C28.5051 28.828 28.5056 28.828 28.5061 28.828C28.5067 28.828 28.5072 28.828 28.5078 28.828C28.5083 28.828 28.5088 28.828 28.5094 28.828C28.5099 28.828 28.5105 28.828 28.511 28.828C28.5115 28.828 28.5121 28.828 28.5126 28.828C28.5131 28.828 28.5137 28.828 28.5142 28.828C28.5148 28.828 28.5153 28.828 28.5158 28.828C28.5164 28.828 28.5169 28.828 28.5174 28.828C28.518 28.828 28.5185 28.828 28.519 28.828C28.5196 28.828 28.5201 28.828 28.5206 28.828C28.5212 28.828 28.5217 28.828 28.5222 28.828C28.5228 28.828 28.5233 28.828 28.5238 28.828C28.5244 28.828 28.5249 28.828 28.5254 28.828C28.526 28.828 28.5265 28.828 28.527 28.828C28.5276 28.828 28.5281 28.828 28.5286 28.828C28.5291 28.828 28.5297 28.828 28.5302 28.828C28.5307 28.828 28.5313 28.828 28.5318 28.828C28.5323 28.828 28.5328 28.828 28.5334 28.828C28.5339 28.828 28.5344 28.828 28.535 28.828C28.5355 28.828 28.536 28.828 28.5365 28.828C28.5371 28.828 28.5376 28.828 28.5381 28.828C28.5386 28.828 28.5392 28.828 28.5397 28.828C28.5402 28.828 28.5407 28.828 28.5413 28.828C28.5418 28.828 28.5423 28.828 28.5428 28.828C28.5433 28.828 28.5439 28.828 28.5444 28.828C28.5449 28.828 28.5454 28.828 28.546 28.828C28.5465 28.828 28.547 28.828 28.5475 28.828C28.548 28.828 28.5486 28.828 28.5491 28.828C28.5496 28.828 28.5501 28.828 28.5506 28.828C28.5511 28.828 28.5517 28.828 28.5522 28.828C28.5527 28.828 28.5532 28.828 28.5537 28.828C28.5543 28.828 28.5548 28.828 28.5553 28.828C28.5558 28.828 28.5563 28.828 28.5568 28.828C28.5574 28.828 28.5579 28.828 28.5584 28.828C28.5589 28.828 28.5594 28.828 28.5599 28.828C28.5604 28.828 28.561 28.828 28.5615 28.828C28.562 28.828 28.5625 28.828 28.563 28.828C28.5635 28.828 28.564 28.828 28.5645 28.828C28.5651 28.828 28.5656 28.828 28.5661 28.828C28.5666 28.828 28.5671 28.828 28.5676 28.828C28.5681 28.828 28.5686 28.828 28.5691 28.828C28.5696 28.828 28.5702 28.828 28.5707 28.828C28.5712 28.828 28.5717 28.828 28.5722 28.828C28.5727 28.828 28.5732 28.828 28.5737 28.828C28.5742 28.828 28.5747 28.828 28.5752 28.828C28.5757 28.828 28.5762 28.828 28.5768 28.828C28.5773 28.828 28.5778 28.828 28.5783 28.828C28.5788 28.828 28.5793 28.828 28.5798 28.828C28.5803 28.828 28.5808 28.828 28.5813 28.828C28.5818 28.828 28.5823 28.828 28.5828 28.828C28.5833 28.828 28.5838 28.828 28.5843 28.828C28.5848 28.828 28.5853 28.828 28.5858 28.828C28.5863 28.828 28.5868 28.828 28.5873 28.828C28.5878 28.828 28.5883 28.828 28.5888 28.828C28.5893 28.828 28.5898 28.828 28.5903 28.828C28.5908 28.828 28.5913 28.828 28.5918 28.828C28.5923 28.828 28.5928 28.828 28.5933 28.828C28.5938 28.828 28.5943 28.828 28.5948 28.828C28.5953 28.828 28.5958 28.828 28.5963 28.828C28.5968 28.828 28.5973 28.828 28.5978 28.828C28.5983 28.828 28.5988 28.828 28.5992 28.828C28.5997 28.828 28.6002 28.828 28.6007 28.828C28.6012 28.828 28.6017 28.828 28.6022 28.828C28.6027 28.828 28.6032 28.828 28.6037 28.828C28.6042 28.828 28.6047 28.828 28.6052 28.828C28.6056 28.828 28.6061 28.828 28.6066 28.828C28.6071 28.828 28.6076 28.828 28.6081 28.828C28.6086 28.828 28.6091 28.828 28.6096 28.828C28.6101 28.828 28.6105 28.828 28.611 28.828C28.6115 28.828 28.612 28.828 28.6125 28.828C28.613 28.828 28.6135 28.828 28.614 28.828C28.6144 28.828 28.6149 28.828 28.6154 28.828C28.6159 28.828 28.6164 28.828 28.6169 28.828C28.6174 28.828 28.6178 28.828 28.6183 28.828C28.6188 28.828 28.6193 28.828 28.6198 28.828C28.6203 28.828 28.6207 28.828 28.6212 28.828C28.6217 28.828 28.6222 28.828 28.6227 28.828C28.6231 28.828 28.6236 28.828 28.6241 28.828C28.6246 28.828 28.6251 28.828 28.6256 28.828C28.626 28.828 28.6265 28.828 28.627 28.828C28.6275 28.828 28.6279 28.828 28.6284 28.828C28.6289 28.828 28.6294 28.828 28.6299 28.828C28.6303 28.828 28.6308 28.828 28.6313 28.828C28.6318 28.828 28.6322 28.828 28.6327 28.828C28.6332 28.828 28.6337 28.828 28.6342 28.828C28.6346 28.828 28.6351 28.828 28.6356 28.828C28.6361 28.828 28.6365 28.828 28.637 28.828C28.6375 28.828 28.6379 28.828 28.6384 28.828C28.6389 28.828 28.6394 28.828 28.6398 28.828C28.6403 28.828 28.6408 28.828 28.6413 28.828C28.6417 28.828 28.6422 28.828 28.6427 28.828C28.6431 28.828 28.6436 28.828 28.6441 28.828C28.6446 28.828 28.645 28.828 28.6455 28.828C28.646 28.828 28.6464 28.828 28.6469 28.828C28.6474 28.828 28.6478 28.828 28.6483 28.828C28.6488 28.828 28.6492 28.828 28.6497 28.828C28.6502 28.828 28.6506 28.828 28.6511 28.828C28.6516 28.828 28.652 28.828 28.6525 28.828C28.653 28.828 28.6534 28.828 28.6539 28.828C28.6544 28.828 28.6548 28.828 28.6553 28.828C28.6558 28.828 28.6562 28.828 28.6567 28.828C28.6571 28.828 28.6576 28.828 28.6581 28.828C28.6585 28.828 28.659 28.828 28.6595 28.828C28.6599 28.828 28.6604 28.828 28.6608 28.828C28.6613 28.828 28.6618 28.828 28.6622 28.828C28.6627 28.828 28.6631 28.828 28.6636 28.828C28.6641 28.828 28.6645 28.828 28.665 28.828C28.6654 28.828 28.6659 28.828 28.6663 28.828C28.6668 28.828 28.6673 28.828 28.6677 28.828C28.6682 28.828 28.6686 28.828 28.6691 28.828C28.6695 28.828 28.67 28.828 28.6705 28.828C28.6709 28.828 28.6714 28.828 28.6718 28.828C28.6723 28.828 28.6727 28.828 28.6732 28.828C28.6736 28.828 28.6741 28.828 28.6745 28.828C28.675 28.828 28.6755 28.828 28.6759 28.828C28.6764 28.828 28.6768 28.828 28.6773 28.828C28.6777 28.828 28.6782 28.828 28.6786 28.828C28.6791 28.828 28.6795 28.828 28.68 28.828C28.6804 28.828 28.6809 28.828 28.6813 28.828C28.6818 28.828 28.6822 28.828 28.6827 28.828C28.6831 28.828 28.6836 28.828 28.684 28.828C28.6845 28.828 28.6849 28.828 28.6853 28.828C28.6858 28.828 28.6862 28.828 28.6867 28.828C28.6871 28.828 28.6876 28.828 28.688 28.828C28.6885 28.828 28.6889 28.828 28.6894 28.828C28.6898 28.828 28.6902 28.828 28.6907 28.828C28.6911 28.828 28.6916 28.828 28.692 28.828C28.6925 28.828 28.6929 28.828 28.6933 28.828C28.6938 28.828 28.6942 28.828 28.6947 28.828C28.6951 28.828 28.6956 28.828 28.696 28.828C28.6964 28.828 28.6969 28.828 28.6973 28.828C28.6978 28.828 28.6982 28.828 28.6986 28.828C28.6991 28.828 28.6995 28.828 28.7 28.828C28.7004 28.828 28.7008 28.828 28.7013 28.828C28.7017 28.828 28.7021 28.828 28.7026 28.828C28.703 28.828 28.7035 28.828 28.7039 28.828C28.7043 28.828 28.7048 28.828 28.7052 28.828C28.7056 28.828 28.7061 28.828 28.7065 28.828C28.7069 28.828 28.7074 28.828 28.7078 28.828C28.7082 28.828 28.7087 28.828 28.7091 28.828C28.7095 28.828 28.71 28.828 28.7104 28.828C28.7108 28.828 28.7113 28.828 28.7117 28.828C28.7121 28.828 28.7126 28.828 28.713 28.828C28.7134 28.828 28.7138 28.828 28.7143 28.828C28.7147 28.828 28.7151 28.828 28.7156 28.828C28.716 28.828 28.7164 28.828 28.7169 28.828C28.7173 28.828 28.7177 28.828 28.7181 28.828C28.7186 28.828 28.719 28.828 28.7194 28.828C28.7198 28.828 28.7203 28.828 28.7207 28.828C28.7211 28.828 28.7216 28.828 28.722 28.828C28.7224 28.828 28.7228 28.828 28.7233 28.828C28.7237 28.828 28.7241 28.828 28.7245 28.828C28.7249 28.828 28.7254 28.828 28.7258 28.828C28.7262 28.828 28.7266 28.828 28.7271 28.828C28.7275 28.828 28.7279 28.828 28.7283 28.828C28.7287 28.828 28.7292 28.828 28.7296 28.828C28.73 28.828 28.7304 28.828 28.7308 28.828C28.7313 28.828 28.7317 28.828 28.7321 28.828C28.7325 28.828 28.7329 28.828 28.7334 28.828C28.7338 28.828 28.7342 28.828 28.7346 28.828C28.735 28.828 28.7355 28.828 28.7359 28.828C28.7363 28.828 28.7367 28.828 28.7371 28.828C28.7375 28.828 28.7379 28.828 28.7384 28.828C28.7388 28.828 28.7392 28.828 28.7396 28.828C28.74 28.828 28.7404 28.828 28.7409 28.828C28.7413 28.828 28.7417 28.828 28.7421 28.828C28.7425 28.828 28.7429 28.828 28.7433 28.828C28.7437 28.828 28.7442 28.828 28.7446 28.828C28.745 28.828 28.7454 28.828 28.7458 28.828C28.7462 28.828 28.7466 28.828 28.747 28.828C28.7474 28.828 28.7478 28.828 28.7483 28.828C28.7487 28.828 28.7491 28.828 28.7495 28.828C28.7499 28.828 28.7503 28.828 28.7507 28.828C28.7511 28.828 28.7515 28.828 28.7519 28.828C28.7523 28.828 28.7527 28.828 28.7531 28.828C28.7536 28.828 28.754 28.828 28.7544 28.828C28.7548 28.828 28.7552 28.828 28.7556 28.828C28.756 28.828 28.7564 28.828 28.7568 28.828C28.7572 28.828 28.7576 28.828 28.758 28.828C28.7584 28.828 28.7588 28.828 28.7592 28.828C28.7596 28.828 28.76 28.828 28.7604 28.828C28.7608 28.828 28.7612 28.828 28.7616 28.828C28.762 28.828 28.7624 28.828 28.7628 28.828C28.7632 28.828 28.7636 28.828 28.764 28.828C28.7644 28.828 28.7648 28.828 28.7652 28.828C28.7656 28.828 28.766 28.828 28.7664 28.828C28.7668 28.828 28.7672 28.828 28.7676 28.828C28.768 28.828 28.7684 28.828 28.7688 28.828C28.7692 28.828 28.7696 28.828 28.77 28.828C28.7704 28.828 28.7708 28.828 28.7712 28.828C28.7715 28.828 28.7719 28.828 28.7723 28.828C28.7727 28.828 28.7731 28.828 28.7735 28.828C28.7739 28.828 28.7743 28.828 28.7747 28.828C28.7751 28.828 28.7755 28.828 28.7759 28.828C28.7763 28.828 28.7766 28.828 28.777 28.828C28.7774 28.828 28.7778 28.828 28.7782 28.828C28.7786 28.828 28.779 28.828 28.7794 28.828C28.7798 28.828 28.7802 28.828 28.7805 28.828C28.7809 28.828 28.7813 28.828 28.7817 28.828C28.7821 28.828 28.7825 28.828 28.7829 28.828C28.7833 28.828 28.7836 28.828 28.784 28.828C28.7844 28.828 28.7848 28.828 28.7852 28.828C28.7856 28.828 28.7859 28.828 28.7863 28.828C28.7867 28.828 28.7871 28.828 28.7875 28.828C28.7879 28.828 28.7883 28.828 28.7886 28.828C28.789 28.828 28.7894 28.828 28.7898 28.828C28.7902 28.828 28.7905 28.828 28.7909 28.828C28.7913 28.828 28.7917 28.828 28.7921 28.828C28.7924 28.828 28.7928 28.828 28.7932 28.828C28.7936 28.828 28.794 28.828 28.7943 28.828C28.7947 28.828 28.7951 28.828 28.7955 28.828C28.7959 28.828 28.7962 28.828 28.7966 28.828C28.797 28.828 28.7974 28.828 28.7977 28.828C28.7981 28.828 28.7985 28.828 28.7989 28.828C28.7992 28.828 28.7996 28.828 28.8 28.828V26.828C28.7996 26.828 28.7992 26.828 28.7989 26.828C28.7985 26.828 28.7981 26.828 28.7977 26.828C28.7974 26.828 28.797 26.828 28.7966 26.828C28.7962 26.828 28.7959 26.828 28.7955 26.828C28.7951 26.828 28.7947 26.828 28.7943 26.828C28.794 26.828 28.7936 26.828 28.7932 26.828C28.7928 26.828 28.7924 26.828 28.7921 26.828C28.7917 26.828 28.7913 26.828 28.7909 26.828C28.7905 26.828 28.7902 26.828 28.7898 26.828C28.7894 26.828 28.789 26.828 28.7886 26.828C28.7883 26.828 28.7879 26.828 28.7875 26.828C28.7871 26.828 28.7867 26.828 28.7863 26.828C28.7859 26.828 28.7856 26.828 28.7852 26.828C28.7848 26.828 28.7844 26.828 28.784 26.828C28.7836 26.828 28.7833 26.828 28.7829 26.828C28.7825 26.828 28.7821 26.828 28.7817 26.828C28.7813 26.828 28.7809 26.828 28.7805 26.828C28.7802 26.828 28.7798 26.828 28.7794 26.828C28.779 26.828 28.7786 26.828 28.7782 26.828C28.7778 26.828 28.7774 26.828 28.777 26.828C28.7766 26.828 28.7763 26.828 28.7759 26.828C28.7755 26.828 28.7751 26.828 28.7747 26.828C28.7743 26.828 28.7739 26.828 28.7735 26.828C28.7731 26.828 28.7727 26.828 28.7723 26.828C28.7719 26.828 28.7715 26.828 28.7712 26.828C28.7708 26.828 28.7704 26.828 28.77 26.828C28.7696 26.828 28.7692 26.828 28.7688 26.828C28.7684 26.828 28.768 26.828 28.7676 26.828C28.7672 26.828 28.7668 26.828 28.7664 26.828C28.766 26.828 28.7656 26.828 28.7652 26.828C28.7648 26.828 28.7644 26.828 28.764 26.828C28.7636 26.828 28.7632 26.828 28.7628 26.828C28.7624 26.828 28.762 26.828 28.7616 26.828C28.7612 26.828 28.7608 26.828 28.7604 26.828C28.76 26.828 28.7596 26.828 28.7592 26.828C28.7588 26.828 28.7584 26.828 28.758 26.828C28.7576 26.828 28.7572 26.828 28.7568 26.828C28.7564 26.828 28.756 26.828 28.7556 26.828C28.7552 26.828 28.7548 26.828 28.7544 26.828C28.754 26.828 28.7536 26.828 28.7531 26.828C28.7527 26.828 28.7523 26.828 28.7519 26.828C28.7515 26.828 28.7511 26.828 28.7507 26.828C28.7503 26.828 28.7499 26.828 28.7495 26.828C28.7491 26.828 28.7487 26.828 28.7483 26.828C28.7478 26.828 28.7474 26.828 28.747 26.828C28.7466 26.828 28.7462 26.828 28.7458 26.828C28.7454 26.828 28.745 26.828 28.7446 26.828C28.7442 26.828 28.7437 26.828 28.7433 26.828C28.7429 26.828 28.7425 26.828 28.7421 26.828C28.7417 26.828 28.7413 26.828 28.7409 26.828C28.7404 26.828 28.74 26.828 28.7396 26.828C28.7392 26.828 28.7388 26.828 28.7384 26.828C28.7379 26.828 28.7375 26.828 28.7371 26.828C28.7367 26.828 28.7363 26.828 28.7359 26.828C28.7355 26.828 28.735 26.828 28.7346 26.828C28.7342 26.828 28.7338 26.828 28.7334 26.828C28.7329 26.828 28.7325 26.828 28.7321 26.828C28.7317 26.828 28.7313 26.828 28.7308 26.828C28.7304 26.828 28.73 26.828 28.7296 26.828C28.7292 26.828 28.7287 26.828 28.7283 26.828C28.7279 26.828 28.7275 26.828 28.7271 26.828C28.7266 26.828 28.7262 26.828 28.7258 26.828C28.7254 26.828 28.7249 26.828 28.7245 26.828C28.7241 26.828 28.7237 26.828 28.7233 26.828C28.7228 26.828 28.7224 26.828 28.722 26.828C28.7216 26.828 28.7211 26.828 28.7207 26.828C28.7203 26.828 28.7198 26.828 28.7194 26.828C28.719 26.828 28.7186 26.828 28.7181 26.828C28.7177 26.828 28.7173 26.828 28.7169 26.828C28.7164 26.828 28.716 26.828 28.7156 26.828C28.7151 26.828 28.7147 26.828 28.7143 26.828C28.7138 26.828 28.7134 26.828 28.713 26.828C28.7126 26.828 28.7121 26.828 28.7117 26.828C28.7113 26.828 28.7108 26.828 28.7104 26.828C28.71 26.828 28.7095 26.828 28.7091 26.828C28.7087 26.828 28.7082 26.828 28.7078 26.828C28.7074 26.828 28.7069 26.828 28.7065 26.828C28.7061 26.828 28.7056 26.828 28.7052 26.828C28.7048 26.828 28.7043 26.828 28.7039 26.828C28.7035 26.828 28.703 26.828 28.7026 26.828C28.7021 26.828 28.7017 26.828 28.7013 26.828C28.7008 26.828 28.7004 26.828 28.7 26.828C28.6995 26.828 28.6991 26.828 28.6986 26.828C28.6982 26.828 28.6978 26.828 28.6973 26.828C28.6969 26.828 28.6964 26.828 28.696 26.828C28.6956 26.828 28.6951 26.828 28.6947 26.828C28.6942 26.828 28.6938 26.828 28.6933 26.828C28.6929 26.828 28.6925 26.828 28.692 26.828C28.6916 26.828 28.6911 26.828 28.6907 26.828C28.6902 26.828 28.6898 26.828 28.6894 26.828C28.6889 26.828 28.6885 26.828 28.688 26.828C28.6876 26.828 28.6871 26.828 28.6867 26.828C28.6862 26.828 28.6858 26.828 28.6853 26.828C28.6849 26.828 28.6845 26.828 28.684 26.828C28.6836 26.828 28.6831 26.828 28.6827 26.828C28.6822 26.828 28.6818 26.828 28.6813 26.828C28.6809 26.828 28.6804 26.828 28.68 26.828C28.6795 26.828 28.6791 26.828 28.6786 26.828C28.6782 26.828 28.6777 26.828 28.6773 26.828C28.6768 26.828 28.6764 26.828 28.6759 26.828C28.6755 26.828 28.675 26.828 28.6745 26.828C28.6741 26.828 28.6736 26.828 28.6732 26.828C28.6727 26.828 28.6723 26.828 28.6718 26.828C28.6714 26.828 28.6709 26.828 28.6705 26.828C28.67 26.828 28.6695 26.828 28.6691 26.828C28.6686 26.828 28.6682 26.828 28.6677 26.828C28.6673 26.828 28.6668 26.828 28.6663 26.828C28.6659 26.828 28.6654 26.828 28.665 26.828C28.6645 26.828 28.6641 26.828 28.6636 26.828C28.6631 26.828 28.6627 26.828 28.6622 26.828C28.6618 26.828 28.6613 26.828 28.6608 26.828C28.6604 26.828 28.6599 26.828 28.6595 26.828C28.659 26.828 28.6585 26.828 28.6581 26.828C28.6576 26.828 28.6571 26.828 28.6567 26.828C28.6562 26.828 28.6558 26.828 28.6553 26.828C28.6548 26.828 28.6544 26.828 28.6539 26.828C28.6534 26.828 28.653 26.828 28.6525 26.828C28.652 26.828 28.6516 26.828 28.6511 26.828C28.6506 26.828 28.6502 26.828 28.6497 26.828C28.6492 26.828 28.6488 26.828 28.6483 26.828C28.6478 26.828 28.6474 26.828 28.6469 26.828C28.6464 26.828 28.646 26.828 28.6455 26.828C28.645 26.828 28.6446 26.828 28.6441 26.828C28.6436 26.828 28.6431 26.828 28.6427 26.828C28.6422 26.828 28.6417 26.828 28.6413 26.828C28.6408 26.828 28.6403 26.828 28.6398 26.828C28.6394 26.828 28.6389 26.828 28.6384 26.828C28.6379 26.828 28.6375 26.828 28.637 26.828C28.6365 26.828 28.6361 26.828 28.6356 26.828C28.6351 26.828 28.6346 26.828 28.6342 26.828C28.6337 26.828 28.6332 26.828 28.6327 26.828C28.6322 26.828 28.6318 26.828 28.6313 26.828C28.6308 26.828 28.6303 26.828 28.6299 26.828C28.6294 26.828 28.6289 26.828 28.6284 26.828C28.6279 26.828 28.6275 26.828 28.627 26.828C28.6265 26.828 28.626 26.828 28.6256 26.828C28.6251 26.828 28.6246 26.828 28.6241 26.828C28.6236 26.828 28.6231 26.828 28.6227 26.828C28.6222 26.828 28.6217 26.828 28.6212 26.828C28.6207 26.828 28.6203 26.828 28.6198 26.828C28.6193 26.828 28.6188 26.828 28.6183 26.828C28.6178 26.828 28.6174 26.828 28.6169 26.828C28.6164 26.828 28.6159 26.828 28.6154 26.828C28.6149 26.828 28.6144 26.828 28.614 26.828C28.6135 26.828 28.613 26.828 28.6125 26.828C28.612 26.828 28.6115 26.828 28.611 26.828C28.6105 26.828 28.6101 26.828 28.6096 26.828C28.6091 26.828 28.6086 26.828 28.6081 26.828C28.6076 26.828 28.6071 26.828 28.6066 26.828C28.6061 26.828 28.6056 26.828 28.6052 26.828C28.6047 26.828 28.6042 26.828 28.6037 26.828C28.6032 26.828 28.6027 26.828 28.6022 26.828C28.6017 26.828 28.6012 26.828 28.6007 26.828C28.6002 26.828 28.5997 26.828 28.5992 26.828C28.5988 26.828 28.5983 26.828 28.5978 26.828C28.5973 26.828 28.5968 26.828 28.5963 26.828C28.5958 26.828 28.5953 26.828 28.5948 26.828C28.5943 26.828 28.5938 26.828 28.5933 26.828C28.5928 26.828 28.5923 26.828 28.5918 26.828C28.5913 26.828 28.5908 26.828 28.5903 26.828C28.5898 26.828 28.5893 26.828 28.5888 26.828C28.5883 26.828 28.5878 26.828 28.5873 26.828C28.5868 26.828 28.5863 26.828 28.5858 26.828C28.5853 26.828 28.5848 26.828 28.5843 26.828C28.5838 26.828 28.5833 26.828 28.5828 26.828C28.5823 26.828 28.5818 26.828 28.5813 26.828C28.5808 26.828 28.5803 26.828 28.5798 26.828C28.5793 26.828 28.5788 26.828 28.5783 26.828C28.5778 26.828 28.5773 26.828 28.5768 26.828C28.5762 26.828 28.5757 26.828 28.5752 26.828C28.5747 26.828 28.5742 26.828 28.5737 26.828C28.5732 26.828 28.5727 26.828 28.5722 26.828C28.5717 26.828 28.5712 26.828 28.5707 26.828C28.5702 26.828 28.5696 26.828 28.5691 26.828C28.5686 26.828 28.5681 26.828 28.5676 26.828C28.5671 26.828 28.5666 26.828 28.5661 26.828C28.5656 26.828 28.5651 26.828 28.5645 26.828C28.564 26.828 28.5635 26.828 28.563 26.828C28.5625 26.828 28.562 26.828 28.5615 26.828C28.561 26.828 28.5604 26.828 28.5599 26.828C28.5594 26.828 28.5589 26.828 28.5584 26.828C28.5579 26.828 28.5574 26.828 28.5568 26.828C28.5563 26.828 28.5558 26.828 28.5553 26.828C28.5548 26.828 28.5543 26.828 28.5537 26.828C28.5532 26.828 28.5527 26.828 28.5522 26.828C28.5517 26.828 28.5511 26.828 28.5506 26.828C28.5501 26.828 28.5496 26.828 28.5491 26.828C28.5486 26.828 28.548 26.828 28.5475 26.828C28.547 26.828 28.5465 26.828 28.546 26.828C28.5454 26.828 28.5449 26.828 28.5444 26.828C28.5439 26.828 28.5433 26.828 28.5428 26.828C28.5423 26.828 28.5418 26.828 28.5413 26.828C28.5407 26.828 28.5402 26.828 28.5397 26.828C28.5392 26.828 28.5386 26.828 28.5381 26.828C28.5376 26.828 28.5371 26.828 28.5365 26.828C28.536 26.828 28.5355 26.828 28.535 26.828C28.5344 26.828 28.5339 26.828 28.5334 26.828C28.5328 26.828 28.5323 26.828 28.5318 26.828C28.5313 26.828 28.5307 26.828 28.5302 26.828C28.5297 26.828 28.5291 26.828 28.5286 26.828C28.5281 26.828 28.5276 26.828 28.527 26.828C28.5265 26.828 28.526 26.828 28.5254 26.828C28.5249 26.828 28.5244 26.828 28.5238 26.828C28.5233 26.828 28.5228 26.828 28.5222 26.828C28.5217 26.828 28.5212 26.828 28.5206 26.828C28.5201 26.828 28.5196 26.828 28.519 26.828C28.5185 26.828 28.518 26.828 28.5174 26.828C28.5169 26.828 28.5164 26.828 28.5158 26.828C28.5153 26.828 28.5148 26.828 28.5142 26.828C28.5137 26.828 28.5131 26.828 28.5126 26.828C28.5121 26.828 28.5115 26.828 28.511 26.828C28.5105 26.828 28.5099 26.828 28.5094 26.828C28.5088 26.828 28.5083 26.828 28.5078 26.828C28.5072 26.828 28.5067 26.828 28.5061 26.828C28.5056 26.828 28.5051 26.828 28.5045 26.828C28.504 26.828 28.5034 26.828 28.5029 26.828C28.5024 26.828 28.5018 26.828 28.5013 26.828C28.5007 26.828 28.5002 26.828 28.4996 26.828C28.4991 26.828 28.4986 26.828 28.498 26.828C28.4975 26.828 28.4969 26.828 28.4964 26.828C28.4958 26.828 28.4953 26.828 28.4947 26.828C28.4942 26.828 28.4936 26.828 28.4931 26.828C28.4926 26.828 28.492 26.828 28.4915 26.828C28.4909 26.828 28.4904 26.828 28.4898 26.828C28.4893 26.828 28.4887 26.828 28.4882 26.828C28.4876 26.828 28.4871 26.828 28.4865 26.828C28.486 26.828 28.4854 26.828 28.4849 26.828C28.4843 26.828 28.4838 26.828 28.4832 26.828C28.4827 26.828 28.4821 26.828 28.4816 26.828C28.481 26.828 28.4805 26.828 28.4799 26.828C28.4794 26.828 28.4788 26.828 28.4782 26.828C28.4777 26.828 28.4771 26.828 28.4766 26.828C28.476 26.828 28.4755 26.828 28.4749 26.828C28.4744 26.828 28.4738 26.828 28.4733 26.828C28.4727 26.828 28.4721 26.828 28.4716 26.828C28.471 26.828 28.4705 26.828 28.4699 26.828C28.4694 26.828 28.4688 26.828 28.4682 26.828C28.4677 26.828 28.4671 26.828 28.4666 26.828C28.466 26.828 28.4654 26.828 28.4649 26.828C28.4643 26.828 28.4638 26.828 28.4632 26.828C28.4626 26.828 28.4621 26.828 28.4615 26.828C28.461 26.828 28.4604 26.828 28.4598 26.828C28.4593 26.828 28.4587 26.828 28.4581 26.828C28.4576 26.828 28.457 26.828 28.4565 26.828C28.4559 26.828 28.4553 26.828 28.4548 26.828C28.4542 26.828 28.4536 26.828 28.4531 26.828C28.4525 26.828 28.4519 26.828 28.4514 26.828C28.4508 26.828 28.4502 26.828 28.4497 26.828C28.4491 26.828 28.4485 26.828 28.448 26.828C28.4474 26.828 28.4468 26.828 28.4463 26.828C28.4457 26.828 28.4451 26.828 28.4446 26.828C28.444 26.828 28.4434 26.828 28.4429 26.828C28.4423 26.828 28.4417 26.828 28.4411 26.828C28.4406 26.828 28.44 26.828 28.4394 26.828C28.4389 26.828 28.4383 26.828 28.4377 26.828C28.4371 26.828 28.4366 26.828 28.436 26.828C28.4354 26.828 28.4349 26.828 28.4343 26.828C28.4337 26.828 28.4331 26.828 28.4326 26.828C28.432 26.828 28.4314 26.828 28.4308 26.828C28.4303 26.828 28.4297 26.828 28.4291 26.828C28.4285 26.828 28.428 26.828 28.4274 26.828C28.4268 26.828 28.4262 26.828 28.4256 26.828C28.4251 26.828 28.4245 26.828 28.4239 26.828C28.4233 26.828 28.4228 26.828 28.4222 26.828C28.4216 26.828 28.421 26.828 28.4204 26.828C28.4199 26.828 28.4193 26.828 28.4187 26.828C28.4181 26.828 28.4175 26.828 28.417 26.828C28.4164 26.828 28.4158 26.828 28.4152 26.828C28.4146 26.828 28.414 26.828 28.4135 26.828C28.4129 26.828 28.4123 26.828 28.4117 26.828C28.4111 26.828 28.4105 26.828 28.41 26.828C28.4094 26.828 28.4088 26.828 28.4082 26.828C28.4076 26.828 28.407 26.828 28.4064 26.828C28.4059 26.828 28.4053 26.828 28.4047 26.828C28.4041 26.828 28.4035 26.828 28.4029 26.828C28.4023 26.828 28.4017 26.828 28.4012 26.828C28.4006 26.828 28.4 26.828 28.3994 26.828C28.3988 26.828 28.3982 26.828 28.3976 26.828C28.397 26.828 28.3964 26.828 28.3959 26.828C28.3953 26.828 28.3947 26.828 28.3941 26.828C28.3935 26.828 28.3929 26.828 28.3923 26.828C28.3917 26.828 28.3911 26.828 28.3905 26.828C28.3899 26.828 28.3893 26.828 28.3887 26.828C28.3882 26.828 28.3876 26.828 28.387 26.828C28.3864 26.828 28.3858 26.828 28.3852 26.828C28.3846 26.828 28.384 26.828 28.3834 26.828C28.3828 26.828 28.3822 26.828 28.3816 26.828C28.381 26.828 28.3804 26.828 28.3798 26.828C28.3792 26.828 28.3786 26.828 28.378 26.828C28.3774 26.828 28.3768 26.828 28.3762 26.828C28.3756 26.828 28.375 26.828 28.3744 26.828C28.3738 26.828 28.3732 26.828 28.3726 26.828C28.372 26.828 28.3714 26.828 28.3708 26.828C28.3702 26.828 28.3696 26.828 28.369 26.828C28.3684 26.828 28.3678 26.828 28.3672 26.828C28.3666 26.828 28.366 26.828 28.3654 26.828C28.3648 26.828 28.3642 26.828 28.3636 26.828C28.363 26.828 28.3624 26.828 28.3618 26.828C28.3612 26.828 28.3606 26.828 28.3599 26.828C28.3593 26.828 28.3587 26.828 28.3581 26.828C28.3575 26.828 28.3569 26.828 28.3563 26.828C28.3557 26.828 28.3551 26.828 28.3545 26.828C28.3539 26.828 28.3533 26.828 28.3527 26.828C28.352 26.828 28.3514 26.828 28.3508 26.828C28.3502 26.828 28.3496 26.828 28.349 26.828C28.3484 26.828 28.3478 26.828 28.3472 26.828C28.3466 26.828 28.3459 26.828 28.3453 26.828C28.3447 26.828 28.3441 26.828 28.3435 26.828C28.3429 26.828 28.3423 26.828 28.3416 26.828C28.341 26.828 28.3404 26.828 28.3398 26.828C28.3392 26.828 28.3386 26.828 28.338 26.828C28.3373 26.828 28.3367 26.828 28.3361 26.828C28.3355 26.828 28.3349 26.828 28.3343 26.828C28.3336 26.828 28.333 26.828 28.3324 26.828C28.3318 26.828 28.3312 26.828 28.3306 26.828C28.3299 26.828 28.3293 26.828 28.3287 26.828C28.3281 26.828 28.3275 26.828 28.3268 26.828C28.3262 26.828 28.3256 26.828 28.325 26.828C28.3244 26.828 28.3237 26.828 28.3231 26.828C28.3225 26.828 28.3219 26.828 28.3212 26.828C28.3206 26.828 28.32 26.828 28.3194 26.828C28.3188 26.828 28.3181 26.828 28.3175 26.828C28.3169 26.828 28.3163 26.828 28.3156 26.828C28.315 26.828 28.3144 26.828 28.3138 26.828C28.3131 26.828 28.3125 26.828 28.3119 26.828C28.3113 26.828 28.3106 26.828 28.31 26.828C28.3094 26.828 28.3088 26.828 28.3081 26.828C28.3075 26.828 28.3069 26.828 28.3062 26.828C28.3056 26.828 28.305 26.828 28.3044 26.828C28.3037 26.828 28.3031 26.828 28.3025 26.828C28.3018 26.828 28.3012 26.828 28.3006 26.828C28.2999 26.828 28.2993 26.828 28.2987 26.828C28.298 26.828 28.2974 26.828 28.2968 26.828C28.2961 26.828 28.2955 26.828 28.2949 26.828C28.2942 26.828 28.2936 26.828 28.293 26.828C28.2923 26.828 28.2917 26.828 28.2911 26.828C28.2904 26.828 28.2898 26.828 28.2892 26.828C28.2885 26.828 28.2879 26.828 28.2873 26.828C28.2866 26.828 28.286 26.828 28.2854 26.828C28.2847 26.828 28.2841 26.828 28.2834 26.828C28.2828 26.828 28.2822 26.828 28.2815 26.828C28.2809 26.828 28.2803 26.828 28.2796 26.828C28.279 26.828 28.2783 26.828 28.2777 26.828C28.2771 26.828 28.2764 26.828 28.2758 26.828C28.2751 26.828 28.2745 26.828 28.2738 26.828C28.2732 26.828 28.2726 26.828 28.2719 26.828C28.2713 26.828 28.2706 26.828 28.27 26.828C28.2693 26.828 28.2687 26.828 28.2681 26.828C28.2674 26.828 28.2668 26.828 28.2661 26.828C28.2655 26.828 28.2648 26.828 28.2642 26.828C28.2635 26.828 28.2629 26.828 28.2623 26.828C28.2616 26.828 28.261 26.828 28.2603 26.828C28.2597 26.828 28.259 26.828 28.2584 26.828C28.2577 26.828 28.2571 26.828 28.2564 26.828C28.2558 26.828 28.2551 26.828 28.2545 26.828C28.2538 26.828 28.2532 26.828 28.2525 26.828C28.2519 26.828 28.2512 26.828 28.2506 26.828C28.2499 26.828 28.2493 26.828 28.2486 26.828C28.248 26.828 28.2473 26.828 28.2467 26.828C28.246 26.828 28.2454 26.828 28.2447 26.828C28.2441 26.828 28.2434 26.828 28.2427 26.828C28.2421 26.828 28.2414 26.828 28.2408 26.828C28.2401 26.828 28.2395 26.828 28.2388 26.828C28.2382 26.828 28.2375 26.828 28.2368 26.828C28.2362 26.828 28.2355 26.828 28.2349 26.828C28.2342 26.828 28.2336 26.828 28.2329 26.828C28.2322 26.828 28.2316 26.828 28.2309 26.828C28.2303 26.828 28.2296 26.828 28.229 26.828C28.2283 26.828 28.2276 26.828 28.227 26.828C28.2263 26.828 28.2257 26.828 28.225 26.828C28.2243 26.828 28.2237 26.828 28.223 26.828C28.2223 26.828 28.2217 26.828 28.221 26.828C28.2204 26.828 28.2197 26.828 28.219 26.828C28.2184 26.828 28.2177 26.828 28.217 26.828C28.2164 26.828 28.2157 26.828 28.215 26.828C28.2144 26.828 28.2137 26.828 28.2131 26.828C28.2124 26.828 28.2117 26.828 28.2111 26.828C28.2104 26.828 28.2097 26.828 28.2091 26.828C28.2084 26.828 28.2077 26.828 28.207 26.828C28.2064 26.828 28.2057 26.828 28.205 26.828C28.2044 26.828 28.2037 26.828 28.203 26.828C28.2024 26.828 28.2017 26.828 28.201 26.828C28.2004 26.828 28.1997 26.828 28.199 26.828C28.1983 26.828 28.1977 26.828 28.197 26.828C28.1963 26.828 28.1957 26.828 28.195 26.828C28.1943 26.828 28.1936 26.828 28.193 26.828C28.1923 26.828 28.1916 26.828 28.1909 26.828C28.1903 26.828 28.1896 26.828 28.1889 26.828C28.1882 26.828 28.1876 26.828 28.1869 26.828C28.1862 26.828 28.1855 26.828 28.1849 26.828C28.1842 26.828 28.1835 26.828 28.1828 26.828C28.1822 26.828 28.1815 26.828 28.1808 26.828C28.1801 26.828 28.1794 26.828 28.1788 26.828C28.1781 26.828 28.1774 26.828 28.1767 26.828C28.176 26.828 28.1754 26.828 28.1747 26.828C28.174 26.828 28.1733 26.828 28.1726 26.828C28.172 26.828 28.1713 26.828 28.1706 26.828C28.1699 26.828 28.1692 26.828 28.1686 26.828C28.1679 26.828 28.1672 26.828 28.1665 26.828C28.1658 26.828 28.1651 26.828 28.1645 26.828C28.1638 26.828 28.1631 26.828 28.1624 26.828C28.1617 26.828 28.161 26.828 28.1603 26.828C28.1597 26.828 28.159 26.828 28.1583 26.828C28.1576 26.828 28.1569 26.828 28.1562 26.828C28.1555 26.828 28.1548 26.828 28.1542 26.828C28.1535 26.828 28.1528 26.828 28.1521 26.828C28.1514 26.828 28.1507 26.828 28.15 26.828C28.1493 26.828 28.1486 26.828 28.148 26.828C28.1473 26.828 28.1466 26.828 28.1459 26.828C28.1452 26.828 28.1445 26.828 28.1438 26.828C28.1431 26.828 28.1424 26.828 28.1417 26.828C28.141 26.828 28.1403 26.828 28.1397 26.828C28.139 26.828 28.1383 26.828 28.1376 26.828C28.1369 26.828 28.1362 26.828 28.1355 26.828C28.1348 26.828 28.1341 26.828 28.1334 26.828C28.1327 26.828 28.132 26.828 28.1313 26.828C28.1306 26.828 28.1299 26.828 28.1292 26.828C28.1285 26.828 28.1278 26.828 28.1271 26.828C28.1264 26.828 28.1257 26.828 28.125 26.828C28.1243 26.828 28.1236 26.828 28.1229 26.828C28.1222 26.828 28.1215 26.828 28.1208 26.828C28.1201 26.828 28.1194 26.828 28.1187 26.828C28.118 26.828 28.1173 26.828 28.1166 26.828C28.1159 26.828 28.1152 26.828 28.1145 26.828C28.1138 26.828 28.1131 26.828 28.1124 26.828C28.1117 26.828 28.111 26.828 28.1103 26.828C28.1096 26.828 28.1089 26.828 28.1082 26.828C28.1075 26.828 28.1068 26.828 28.1061 26.828C28.1054 26.828 28.1047 26.828 28.1039 26.828C28.1032 26.828 28.1025 26.828 28.1018 26.828C28.1011 26.828 28.1004 26.828 28.0997 26.828C28.099 26.828 28.0983 26.828 28.0976 26.828C28.0969 26.828 28.0962 26.828 28.0954 26.828C28.0947 26.828 28.094 26.828 28.0933 26.828C28.0926 26.828 28.0919 26.828 28.0912 26.828C28.0905 26.828 28.0898 26.828 28.0891 26.828C28.0883 26.828 28.0876 26.828 28.0869 26.828C28.0862 26.828 28.0855 26.828 28.0848 26.828C28.0841 26.828 28.0833 26.828 28.0826 26.828C28.0819 26.828 28.0812 26.828 28.0805 26.828C28.0798 26.828 28.0791 26.828 28.0783 26.828C28.0776 26.828 28.0769 26.828 28.0762 26.828C28.0755 26.828 28.0748 26.828 28.074 26.828C28.0733 26.828 28.0726 26.828 28.0719 26.828C28.0712 26.828 28.0705 26.828 28.0697 26.828C28.069 26.828 28.0683 26.828 28.0676 26.828C28.0669 26.828 28.0661 26.828 28.0654 26.828C28.0647 26.828 28.064 26.828 28.0633 26.828C28.0625 26.828 28.0618 26.828 28.0611 26.828C28.0604 26.828 28.0596 26.828 28.0589 26.828C28.0582 26.828 28.0575 26.828 28.0567 26.828C28.056 26.828 28.0553 26.828 28.0546 26.828C28.0539 26.828 28.0531 26.828 28.0524 26.828C28.0517 26.828 28.051 26.828 28.0502 26.828C28.0495 26.828 28.0488 26.828 28.048 26.828C28.0473 26.828 28.0466 26.828 28.0459 26.828C28.0451 26.828 28.0444 26.828 28.0437 26.828C28.043 26.828 28.0422 26.828 28.0415 26.828C28.0408 26.828 28.04 26.828 28.0393 26.828C28.0386 26.828 28.0378 26.828 28.0371 26.828C28.0364 26.828 28.0357 26.828 28.0349 26.828C28.0342 26.828 28.0335 26.828 28.0327 26.828C28.032 26.828 28.0313 26.828 28.0305 26.828C28.0298 26.828 28.0291 26.828 28.0283 26.828C28.0276 26.828 28.0269 26.828 28.0261 26.828C28.0254 26.828 28.0247 26.828 28.0239 26.828C28.0232 26.828 28.0225 26.828 28.0217 26.828C28.021 26.828 28.0202 26.828 28.0195 26.828C28.0188 26.828 28.018 26.828 28.0173 26.828C28.0166 26.828 28.0158 26.828 28.0151 26.828C28.0143 26.828 28.0136 26.828 28.0129 26.828C28.0121 26.828 28.0114 26.828 28.0106 26.828C28.0099 26.828 28.0092 26.828 28.0084 26.828C28.0077 26.828 28.0069 26.828 28.0062 26.828C28.0055 26.828 28.0047 26.828 28.004 26.828C28.0032 26.828 28.0025 26.828 28.0017 26.828C28.001 26.828 28.0003 26.828 27.9995 26.828C27.9988 26.828 27.998 26.828 27.9973 26.828C27.9965 26.828 27.9958 26.828 27.995 26.828C27.9943 26.828 27.9936 26.828 27.9928 26.828C27.9921 26.828 27.9913 26.828 27.9906 26.828C27.9898 26.828 27.9891 26.828 27.9883 26.828C27.9876 26.828 27.9868 26.828 27.9861 26.828C27.9853 26.828 27.9846 26.828 27.9838 26.828C27.9831 26.828 27.9823 26.828 27.9816 26.828C27.9808 26.828 27.9801 26.828 27.9793 26.828C27.9786 26.828 27.9778 26.828 27.9771 26.828C27.9763 26.828 27.9756 26.828 27.9748 26.828C27.9741 26.828 27.9733 26.828 27.9726 26.828C27.9718 26.828 27.9711 26.828 27.9703 26.828C27.9696 26.828 27.9688 26.828 27.9681 26.828C27.9673 26.828 27.9665 26.828 27.9658 26.828C27.965 26.828 27.9643 26.828 27.9635 26.828C27.9628 26.828 27.962 26.828 27.9612 26.828C27.9605 26.828 27.9597 26.828 27.959 26.828C27.9582 26.828 27.9575 26.828 27.9567 26.828C27.9559 26.828 27.9552 26.828 27.9544 26.828C27.9537 26.828 27.9529 26.828 27.9521 26.828C27.9514 26.828 27.9506 26.828 27.9499 26.828C27.9491 26.828 27.9483 26.828 27.9476 26.828C27.9468 26.828 27.9461 26.828 27.9453 26.828C27.9445 26.828 27.9438 26.828 27.943 26.828C27.9422 26.828 27.9415 26.828 27.9407 26.828C27.94 26.828 27.9392 26.828 27.9384 26.828C27.9377 26.828 27.9369 26.828 27.9361 26.828C27.9354 26.828 27.9346 26.828 27.9338 26.828C27.9331 26.828 27.9323 26.828 27.9315 26.828C27.9308 26.828 27.93 26.828 27.9292 26.828C27.9285 26.828 27.9277 26.828 27.9269 26.828C27.9262 26.828 27.9254 26.828 27.9246 26.828C27.9239 26.828 27.9231 26.828 27.9223 26.828C27.9215 26.828 27.9208 26.828 27.92 26.828V28.828ZM28.8 28.828C29.1096 28.828 29.3914 28.8177 29.6134 28.7859L29.3306 26.8061C29.2539 26.817 29.0877 26.828 28.8 26.828V28.828ZM29.6042 28.7872C29.7256 28.771 29.8639 28.7443 30.0024 28.6959C30.1329 28.6502 30.3266 28.5636 30.4991 28.3911L29.0849 26.9769C29.1474 26.9144 29.2071 26.8747 29.249 26.851C29.2911 26.8271 29.3242 26.8142 29.3417 26.8081C29.3734 26.797 29.3784 26.7996 29.3398 26.8048L29.6042 28.7872ZM30.4991 28.3911C30.7629 28.1273 30.888 27.7874 30.888 27.444H28.888C28.888 27.3793 28.8992 27.2955 28.9355 27.2046C28.9723 27.1126 29.0261 27.0357 29.0849 26.9769L30.4991 28.3911ZM30.888 27.444C30.888 27.2137 30.843 26.9138 30.6561 26.6333L28.992 27.7427C28.8903 27.5902 28.888 27.461 28.888 27.444H30.888ZM30.6922 26.6919C30.535 26.4166 30.3067 26.2378 30.1145 26.1225L29.0855 27.8375C29.0919 27.8413 29.0787 27.8343 29.0555 27.8128C29.032 27.7909 28.993 27.7492 28.9558 27.6841L30.6922 26.6919ZM30.1145 26.1225C29.9291 26.0113 29.707 25.9167 29.4817 25.8337L28.7903 27.7103C28.9703 27.7767 29.0576 27.8207 29.0855 27.8375L30.1145 26.1225ZM29.5372 25.856L27.3452 24.896L26.5428 26.728L28.7348 27.688L29.5372 25.856ZM27.3562 24.9009C26.5345 24.5292 26.0721 24.1637 25.842 23.8547L24.238 25.0493C24.7546 25.743 25.5615 26.2842 26.5318 26.7231L27.3562 24.9009ZM25.842 23.8547C25.6308 23.5711 25.48 23.1435 25.48 22.484H23.48C23.48 23.4459 23.7025 24.3302 24.238 25.0493L25.842 23.8547ZM25.48 22.484C25.48 21.9307 25.5515 21.5397 25.6533 21.275L23.7867 20.557C23.5685 21.1243 23.48 21.7786 23.48 22.484H25.48ZM25.6452 21.2956C25.7465 21.0484 25.8893 20.8744 26.0758 20.7444L24.9322 19.1036C24.4147 19.4643 24.0348 19.9516 23.7948 20.5364L25.6452 21.2956ZM26.0758 20.7444C26.2765 20.6045 26.5939 20.4689 27.0781 20.3793L26.7139 18.4127C26.0461 18.5364 25.4355 18.7528 24.9322 19.1036L26.0758 20.7444ZM27.0749 20.3799C27.5845 20.2872 28.2304 20.236 29.024 20.236V18.236C28.1536 18.236 27.3808 18.2915 26.7171 18.4121L27.0749 20.3799ZM43.0616 30.5V31.5H44.0616V30.5H43.0616ZM39.7016 30.5H38.7016V31.5H39.7016V30.5ZM39.5736 25.22L38.9151 25.9726L38.9435 25.9974L38.9736 26.02L39.5736 25.22ZM38.4376 25.156L38.3136 24.1637L38.3083 24.1644L38.4376 25.156ZM37.4616 25.412L36.4896 25.647L36.7474 26.7132L37.7853 26.3582L37.4616 25.412ZM37.1096 23.956L36.4025 23.2489L36.0058 23.6456L36.1376 24.191L37.1096 23.956ZM38.8856 22.692L38.4824 21.7769L38.4766 21.7795L38.8856 22.692ZM37.8136 19.3L38.8136 19.2933L38.8069 18.3H37.8136V19.3ZM37.8296 21.684H38.8296L38.8296 21.6773L37.8296 21.684ZM37.7176 23.076L36.7312 22.9116L36.7296 22.9214L36.7282 22.9312L37.7176 23.076ZM37.4936 24.132L36.5412 23.8272L36.2997 24.5818L36.9791 24.9895L37.4936 24.132ZM37.8136 24.324H38.8136V23.7578L38.3281 23.4665L37.8136 24.324ZM37.8136 30.5V31.5H38.8136V30.5H37.8136ZM34.4536 30.5H33.4536V31.5H34.4536V30.5ZM34.4536 19.3V18.3H33.4536V19.3H34.4536ZM40.6936 23.276C41.3422 23.276 41.6428 23.4304 41.7824 23.5625C41.9116 23.6847 42.0616 23.9381 42.0616 24.516H44.0616C44.0616 23.6006 43.817 22.734 43.1568 22.1095C42.5071 21.4949 41.6237 21.276 40.6936 21.276V23.276ZM42.0616 24.516V30.5H44.0616V24.516H42.0616ZM43.0616 29.5H39.7016V31.5H43.0616V29.5ZM40.7016 30.5V25.588H38.7016V30.5H40.7016ZM40.7016 25.588C40.7016 25.3083 40.6443 24.773 40.1736 24.42L38.9736 26.02C38.8254 25.9088 38.7548 25.7738 38.7251 25.6885C38.6983 25.6115 38.7016 25.5683 38.7016 25.588H40.7016ZM40.2321 24.4674C39.8608 24.1425 39.3937 24.108 39.1256 24.108V26.108C39.1794 26.108 39.1836 26.1133 39.1551 26.1061C39.1282 26.0994 39.0268 26.0703 38.9151 25.9726L40.2321 24.4674ZM39.1256 24.108C38.8721 24.108 38.6002 24.1279 38.3136 24.1637L38.5617 26.1483C38.787 26.1201 38.9738 26.108 39.1256 26.108V24.108ZM38.3083 24.1644C37.9659 24.2091 37.5678 24.3188 37.1379 24.4658L37.7853 26.3582C38.1661 26.2279 38.4187 26.1669 38.567 26.1476L38.3083 24.1644ZM38.4336 25.177L38.0816 23.721L36.1376 24.191L36.4896 25.647L38.4336 25.177ZM37.8167 24.6631C38.3111 24.1687 38.805 23.824 39.2947 23.6045L38.4766 21.7795C37.7289 22.1146 37.0388 22.6126 36.4025 23.2489L37.8167 24.6631ZM39.2889 23.6071C39.8154 23.3751 40.2807 23.276 40.6936 23.276V21.276C39.9545 21.276 39.2145 21.4543 38.4824 21.7769L39.2889 23.6071ZM36.8136 19.3067L36.8296 21.6907L38.8296 21.6773L38.8136 19.2933L36.8136 19.3067ZM36.8296 21.684C36.8296 22.112 36.7963 22.5209 36.7312 22.9116L38.704 23.2404C38.7882 22.7351 38.8296 22.216 38.8296 21.684H36.8296ZM36.7282 22.9312C36.6681 23.3415 36.6031 23.6337 36.5412 23.8272L38.446 24.4368C38.5548 24.097 38.6391 23.6852 38.7071 23.2208L36.7282 22.9312ZM36.9791 24.9895L37.2991 25.1815L38.3281 23.4665L38.0081 23.2745L36.9791 24.9895ZM36.8136 24.324V30.5H38.8136V24.324H36.8136ZM37.8136 29.5H34.4536V31.5H37.8136V29.5ZM35.4536 30.5V19.3H33.4536V30.5H35.4536ZM34.4536 20.3H37.8136V18.3H34.4536V20.3ZM51.2071 22.692L50.815 23.6119L50.8241 23.6158L50.8332 23.6194L51.2071 22.692ZM52.6311 24.02L53.5377 23.598L52.6311 24.02ZM52.6311 28.964L53.5349 29.3921L52.6311 28.964ZM51.2071 30.292L51.5864 31.2173L51.5939 31.2142L51.2071 30.292ZM45.9751 30.292L45.583 31.2119L45.5921 31.2158L45.6012 31.2194L45.9751 30.292ZM44.5511 28.964L43.6474 29.3921L43.6504 29.3985L43.6536 29.4049L44.5511 28.964ZM44.5511 24.02L43.6505 23.5852L43.6445 23.598L44.5511 24.02ZM45.9751 22.692L46.3544 23.6173L46.3619 23.6142L45.9751 22.692ZM48.0071 24.708L48.5763 25.5302L48.597 25.5159L48.6168 25.5006L48.0071 24.708ZM47.7191 25.268L48.7011 25.4568L47.7191 25.268ZM47.7191 27.732L46.7371 27.9209L46.7385 27.9281L47.7191 27.732ZM48.0071 28.276L48.5763 27.4538L48.5763 27.4538L48.0071 28.276ZM49.1911 28.276L49.7603 29.0982L49.1911 28.276ZM49.4631 27.732L48.4811 27.5432L48.4782 27.5585L48.4757 27.574L49.4631 27.732ZM49.4631 25.268L48.4748 25.4201L48.4776 25.4385L48.4811 25.4568L49.4631 25.268ZM49.1911 24.708L48.5814 25.5006L48.6013 25.5159L48.6219 25.5302L49.1911 24.708ZM48.5991 23.276C49.6175 23.276 50.3368 23.4081 50.815 23.6119L51.5992 21.7721C50.7762 21.4213 49.7568 21.276 48.5991 21.276V23.276ZM50.8332 23.6194C51.2709 23.796 51.5488 24.0644 51.7245 24.442L53.5377 23.598C53.1375 22.7382 52.466 22.1214 51.5811 21.7646L50.8332 23.6194ZM51.7245 24.442C51.9271 24.877 52.0631 25.5464 52.0631 26.516H54.0631C54.0631 25.3949 53.9112 24.4003 53.5377 23.598L51.7245 24.442ZM52.0631 26.516C52.0631 27.4621 51.9276 28.1132 51.7274 28.5359L53.5349 29.3921C53.9106 28.5988 54.0631 27.6179 54.0631 26.516H52.0631ZM51.7274 28.5359C51.5523 28.9056 51.2707 29.181 50.8204 29.3698L51.5939 31.2142C52.4662 30.8484 53.134 30.2384 53.5349 29.3921L51.7274 28.5359ZM50.8279 29.3667C50.345 29.5646 49.6207 29.692 48.5991 29.692V31.692C49.7536 31.692 50.7679 31.5527 51.5863 31.2173L50.8279 29.3667ZM48.5991 29.692C47.5788 29.692 46.846 29.5649 46.3491 29.3646L45.6012 31.2194C46.4269 31.5524 47.4435 31.692 48.5991 31.692V29.692ZM46.3672 29.3721C45.9264 29.1842 45.6367 28.9059 45.4487 28.5231L43.6536 29.4049C44.0629 30.2381 44.7225 30.8452 45.583 31.2119L46.3672 29.3721ZM45.4549 28.5359C45.2546 28.1132 45.1191 27.4621 45.1191 26.516H43.1191C43.1191 27.6179 43.2716 28.5988 43.6474 29.3921L45.4549 28.5359ZM45.1191 26.516C45.1191 25.5464 45.2552 24.877 45.4577 24.442L43.6445 23.598C43.2711 24.4003 43.1191 25.3949 43.1191 26.516H45.1191ZM45.4517 24.4547C45.6403 24.064 45.9261 23.7928 46.3543 23.6173L45.5959 21.7667C44.7228 22.1245 44.0593 22.7386 43.6506 23.5853L45.4517 24.4547ZM46.3619 23.6142C46.8542 23.4077 47.582 23.276 48.5991 23.276V21.276C47.4403 21.276 46.4187 21.4216 45.5884 21.7698L46.3619 23.6142ZM48.5991 23.548C48.2209 23.548 47.7755 23.6246 47.3974 23.9154L48.6168 25.5006C48.5664 25.5394 48.5268 25.5515 48.52 25.5534C48.517 25.5542 48.5214 25.5527 48.535 25.5512C48.5485 25.5496 48.5696 25.548 48.5991 25.548V23.548ZM47.4379 23.8858C46.978 24.2042 46.8085 24.7079 46.7371 25.0792L48.7011 25.4568C48.7156 25.3816 48.728 25.3626 48.7204 25.3773C48.7114 25.3949 48.6712 25.4646 48.5763 25.5302L47.4379 23.8858ZM46.7371 25.0792C46.6653 25.4528 46.6391 25.9462 46.6391 26.516H48.6391C48.6391 25.9765 48.6663 25.6378 48.7011 25.4568L46.7371 25.0792ZM46.6391 26.516C46.6391 27.0674 46.6655 27.5487 46.7371 27.9208L48.7011 27.5432C48.666 27.3607 48.6391 27.0312 48.6391 26.516H46.6391ZM46.7385 27.9281C46.813 28.3004 46.9877 28.7865 47.4379 29.0982L48.5763 27.4538C48.6643 27.5147 48.704 27.5795 48.7149 27.6001C48.7241 27.6175 48.7132 27.6033 48.6997 27.5359L46.7385 27.9281ZM47.4379 29.0982C47.8099 29.3557 48.2385 29.42 48.5991 29.42V27.42C48.5661 27.42 48.5412 27.4184 48.5234 27.4166C48.5056 27.4147 48.4968 27.4127 48.4955 27.4123C48.4923 27.4116 48.5266 27.4193 48.5763 27.4538L47.4379 29.0982ZM48.5991 29.42C48.9598 29.42 49.3884 29.3557 49.7603 29.0982L48.6219 27.4538C48.6717 27.4193 48.706 27.4116 48.7028 27.4123C48.7014 27.4127 48.6926 27.4147 48.6748 27.4166C48.6571 27.4184 48.6322 27.42 48.5991 27.42V29.42ZM49.7603 29.0982C50.2266 28.7754 50.3899 28.2691 50.4506 27.89L48.4757 27.574C48.4655 27.638 48.4562 27.6457 48.4687 27.6208C48.4834 27.5914 48.5277 27.5191 48.6219 27.4538L49.7603 29.0982ZM50.4451 27.9208C50.5167 27.5487 50.5431 27.0674 50.5431 26.516H48.5431C48.5431 27.0312 48.5162 27.3607 48.4811 27.5432L50.4451 27.9208ZM50.5431 26.516C50.5431 25.9462 50.517 25.4528 50.4451 25.0792L48.4811 25.4568C48.5159 25.6378 48.5431 25.9765 48.5431 26.516H50.5431ZM50.4515 25.1159C50.3935 24.7391 50.2362 24.2153 49.7603 23.8858L48.6219 25.5302C48.5207 25.4601 48.4763 25.3829 48.4636 25.3569C48.4529 25.3349 48.4637 25.3479 48.4748 25.4201L50.4515 25.1159ZM49.8008 23.9154C49.4228 23.6246 48.9773 23.548 48.5991 23.548V25.548C48.6287 25.548 48.6497 25.5496 48.6633 25.5512C48.6768 25.5527 48.6812 25.5542 48.6782 25.5534C48.6714 25.5515 48.6319 25.5394 48.5814 25.5006L49.8008 23.9154ZM62.3004 23.428L61.4375 23.9334V23.9334L62.3004 23.428ZM62.6044 29.14L61.6736 28.7743L61.6708 28.7816L61.668 28.7889L62.6044 29.14ZM61.5964 30.388L62.0436 31.2824L62.052 31.2782L62.0604 31.2738L61.5964 30.388ZM58.2204 30.452L57.8926 31.3968L57.8985 31.3988L58.2204 30.452ZM56.9564 29.508L55.9706 29.3397L55.9005 29.7503L56.1426 30.0892L56.9564 29.508ZM57.1804 28.196L57.5107 27.2521L56.3938 26.8612L56.1946 28.0277L57.1804 28.196ZM57.7884 28.42L57.4259 29.352L57.4343 29.3552L57.4427 29.3583L57.7884 28.42ZM59.1164 28.42L59.6202 29.2838L59.6304 29.2778L59.6405 29.2717L59.1164 28.42ZM59.4044 27.892L58.43 27.6671L58.4267 27.6815L58.4238 27.6959L59.4044 27.892ZM59.4044 25.364L58.4224 25.5528L58.4267 25.5752L58.432 25.5974L59.4044 25.364ZM59.1324 24.836L58.6285 25.6998L58.6285 25.6998L59.1324 24.836ZM57.9804 24.82L58.2966 25.7687L58.3245 25.7594L58.3518 25.7485L57.9804 24.82ZM57.4844 25.028L56.5456 25.3726L56.9311 26.4227L57.9316 25.9224L57.4844 25.028ZM57.0204 23.764L56.1332 23.3026L55.9295 23.6943L56.0816 24.1086L57.0204 23.764ZM57.6764 23.044L58.2576 23.8577L58.2629 23.8539L57.6764 23.044ZM58.7644 22.516L59.0585 23.4718L59.0696 23.4684L59.0806 23.4647L58.7644 22.516ZM56.8604 22.5L57.8298 22.2546L57.6388 21.5H56.8604V22.5ZM57.1804 23.764L56.211 24.0094L56.2997 24.36L56.5922 24.5727L57.1804 23.764ZM57.5324 24.02H58.5324V23.5108L58.1205 23.2113L57.5324 24.02ZM57.5324 29.316L58.4268 29.7632L58.5324 29.5521V29.316H57.5324ZM57.4364 29.508L56.542 29.0608L56.414 29.3166L56.4407 29.6013L57.4364 29.508ZM57.5164 30.628L58.515 30.5754L57.5164 30.628ZM57.5324 31.796L56.5328 31.7674L56.5324 31.7817V31.796H57.5324ZM57.5324 33.38V34.38H58.5324V33.38H57.5324ZM54.1724 33.38H53.1724V34.38H54.1724V33.38ZM54.1724 22.5V21.5H53.1724V22.5H54.1724ZM60.0764 23.308C60.8535 23.308 61.2195 23.5612 61.4375 23.9334L63.1633 22.9226C62.5066 21.8014 61.39 21.308 60.0764 21.308V23.308ZM61.4375 23.9334C61.7474 24.4625 61.9564 25.3151 61.9564 26.596H63.9564C63.9564 25.1463 63.728 23.8868 63.1633 22.9226L61.4375 23.9334ZM61.9564 26.596C61.9564 27.6457 61.8411 28.348 61.6736 28.7743L63.5351 29.5057C63.837 28.7374 63.9564 27.7436 63.9564 26.596H61.9564ZM61.668 28.7889C61.507 29.2183 61.31 29.4091 61.1324 29.5022L62.0604 31.2738C62.7787 30.8975 63.2537 30.2564 63.5407 29.4911L61.668 28.7889ZM61.1492 29.4936C60.8772 29.6296 60.4862 29.724 59.9324 29.724V31.724C60.7012 31.724 61.4196 31.5944 62.0436 31.2824L61.1492 29.4936ZM59.9324 29.724C59.4252 29.724 58.964 29.6486 58.5423 29.5052L57.8985 31.3988C58.5434 31.618 59.2236 31.724 59.9324 31.724V29.724ZM58.5481 29.5072C58.2202 29.3935 57.9691 29.2053 57.7701 28.9268L56.1426 30.0892C56.5837 30.7067 57.1752 31.1479 57.8926 31.3968L58.5481 29.5072ZM57.9421 29.6763L58.1661 28.3643L56.1946 28.0277L55.9706 29.3397L57.9421 29.6763ZM56.85 29.1399C57.0536 29.2111 57.2455 29.2818 57.4259 29.352L58.1508 27.488C57.9472 27.4088 57.7338 27.3302 57.5107 27.2521L56.85 29.1399ZM57.4427 29.3583C57.7986 29.4895 58.1957 29.532 58.5884 29.532V27.532C58.3197 27.532 58.1835 27.4999 58.1341 27.4817L57.4427 29.3583ZM58.5884 29.532C58.9058 29.532 59.2804 29.482 59.6202 29.2838L58.6125 27.5562C58.6578 27.5298 58.6862 27.5246 58.6809 27.5258C58.6788 27.5262 58.6703 27.5278 58.6544 27.5293C58.6386 27.5308 58.6168 27.532 58.5884 27.532V29.532ZM59.6405 29.2717C60.1336 28.9682 60.312 28.4528 60.385 28.0881L58.4238 27.6959C58.4104 27.7631 58.4005 27.7709 58.4145 27.7451C58.4308 27.7153 58.4825 27.6359 58.5923 27.5683L59.6405 29.2717ZM60.3788 28.1169C60.4693 27.7247 60.5004 27.2102 60.5004 26.628H58.5004C58.5004 27.1764 58.4675 27.5046 58.43 27.6671L60.3788 28.1169ZM60.5004 26.628C60.5004 26.0397 60.4699 25.5188 60.3768 25.1306L58.432 25.5974C58.4668 25.7425 58.5004 26.0643 58.5004 26.628H60.5004ZM60.3864 25.1752C60.3233 24.8473 60.1634 24.2797 59.6362 23.9722L58.6285 25.6998C58.4815 25.614 58.4207 25.5077 58.4074 25.482C58.3948 25.4575 58.4067 25.4715 58.4224 25.5528L60.3864 25.1752ZM59.6362 23.9722C59.3092 23.7814 58.9537 23.724 58.6364 23.724V25.724C58.6565 25.724 58.671 25.7249 58.6804 25.7259C58.6899 25.7269 58.6935 25.7278 58.6921 25.7274C58.6892 25.7268 58.6644 25.7207 58.6285 25.6998L59.6362 23.9722ZM58.6364 23.724C58.2999 23.724 57.9371 23.7603 57.609 23.8915L58.3518 25.7485C58.3418 25.7525 58.3569 25.7451 58.4092 25.7375C58.4603 25.73 58.5345 25.724 58.6364 25.724V23.724ZM57.6641 23.8713C57.4539 23.9414 57.2448 24.0298 57.0372 24.1336L57.9316 25.9224C58.0653 25.8556 58.1869 25.8053 58.2966 25.7687L57.6641 23.8713ZM58.4231 24.6834L57.9591 23.4194L56.0816 24.1086L56.5456 25.3726L58.4231 24.6834ZM57.9076 24.2254C57.9591 24.1262 58.0593 23.9994 58.2576 23.8577L57.0951 22.2303C56.6961 22.5153 56.359 22.8684 56.1332 23.3026L57.9076 24.2254ZM58.2629 23.8539C58.472 23.7025 58.7329 23.572 59.0585 23.4718L58.4703 21.5602C57.9639 21.716 57.4995 21.9375 57.0899 22.2341L58.2629 23.8539ZM59.0806 23.4647C59.39 23.3615 59.7202 23.308 60.0764 23.308V21.308C59.5152 21.308 58.9707 21.3931 58.4481 21.5673L59.0806 23.4647ZM55.891 22.7454L56.211 24.0094L58.1498 23.5186L57.8298 22.2546L55.891 22.7454ZM56.5922 24.5727L56.9442 24.8287L58.1205 23.2113L57.7685 22.9553L56.5922 24.5727ZM56.5324 24.02V29.316H58.5324V24.02H56.5324ZM56.6379 28.8688L56.542 29.0608L58.3308 29.9552L58.4268 29.7632L56.6379 28.8688ZM56.4407 29.6013C56.4713 29.9269 56.497 30.2864 56.5178 30.6806L58.515 30.5754C58.4931 30.1589 58.4655 29.7718 58.432 29.4147L56.4407 29.6013ZM56.5178 30.6806C56.5378 31.0612 56.5426 31.4234 56.5328 31.7674L58.532 31.8246C58.5435 31.422 58.5376 31.0055 58.515 30.5754L56.5178 30.6806ZM56.5324 31.796V33.38H58.5324V31.796H56.5324ZM57.5324 32.38H54.1724V34.38H57.5324V32.38ZM55.1724 33.38V22.5H53.1724V33.38H55.1724ZM54.1724 23.5H56.8604V21.5H54.1724V23.5Z" fill="black" mask="url(#path-2-outside-1_1564_454)"/>
<defs>
<linearGradient id="paint0_linear_1564_454" x1="25.561" y1="24.5" x2="64" y2="24.5" gradientUnits="userSpaceOnUse">
<stop stop-color="#5433FF"/>
<stop offset="0.46875" stop-color="#20BDFF"/>
<stop offset="1" stop-color="#A5FECB"/>
</linearGradient>
</defs>
</svg>
