<svg width="20" height="19" viewBox="0 0 20 19" fill="none" xmlns="http://www.w3.org/2000/svg">
<path d="M9.07088 0.667031C9.41462 -0.149428 10.5854 -0.149427 10.9291 0.667033L12.9579 5.48592C13.1029 5.83012 13.4306 6.0653 13.8067 6.09509L19.0727 6.51217C19.9649 6.58283 20.3267 7.68282 19.6469 8.25809L15.6348 11.6534C15.3482 11.8959 15.223 12.2765 15.3106 12.639L16.5363 17.7157C16.744 18.5758 15.7969 19.2557 15.033 18.7948L10.5245 16.0742C10.2025 15.8799 9.7975 15.8799 9.47548 16.0742L4.96699 18.7948C4.20311 19.2557 3.25596 18.5758 3.46363 17.7157L4.68942 12.639C4.77698 12.2765 4.65182 11.8959 4.36526 11.6534L0.353062 8.25809C-0.326718 7.68282 0.0350679 6.58283 0.927291 6.51217L6.19336 6.09509C6.5695 6.0653 6.89716 5.83012 7.04207 5.48592L9.07088 0.667031Z" fill="black"/>
</svg>
