<svg width="27" height="18" viewBox="0 0 27 18" fill="none" xmlns="http://www.w3.org/2000/svg">
<g clip-path="url(#clip0_1670_4865)">
<path d="M26.4561 2.34905C25.4673 2.70326 24.4185 2.93576 23.3446 3.03883C24.4632 2.49668 25.3221 1.63818 25.7265 0.615286C24.6632 1.12555 23.4997 1.48507 22.2865 1.6783C21.2983 0.826971 19.8905 0.294922 18.3322 0.294922C15.3404 0.294922 12.9147 2.25631 12.9147 4.67543C12.9147 5.01881 12.9627 5.3531 13.055 5.6738C8.55267 5.49106 4.56093 3.74711 1.88894 1.09679C1.42272 1.74377 1.15558 2.49635 1.15558 3.29905C1.15558 4.81888 2.11205 6.15964 3.56558 6.94525C2.70529 6.92346 1.86393 6.73557 1.11174 6.39727C1.11143 6.41562 1.11143 6.43397 1.11143 6.4524C1.11143 8.57484 2.97878 10.3454 5.45696 10.7478C4.65922 10.9233 3.82244 10.9489 3.01055 10.8229C3.69987 12.5633 5.70059 13.8297 8.07109 13.8651C6.21704 15.04 3.8811 15.7404 1.34309 15.7404C0.905757 15.7404 0.474607 15.7196 0.0507812 15.6791C2.4482 16.9221 5.29574 17.6473 8.35505 17.6473C18.3197 17.6473 23.7685 10.9722 23.7685 5.18345C23.7685 4.99345 23.7634 4.80454 23.7529 4.61671C24.8134 3.99673 25.7288 3.22884 26.4561 2.34905Z" fill="white"/>
</g>
<defs>
<clipPath id="clip0_1670_4865">
<rect width="26.4053" height="17.4319" fill="white" transform="translate(0.0507812 0.226562)"/>
</clipPath>
</defs>
</svg>
