<svg width="24" height="25" viewBox="0 0 24 25" fill="none" xmlns="http://www.w3.org/2000/svg">
<path d="M21.5933 8.16785C21.4794 7.74525 21.2568 7.35986 20.9477 7.05002C20.6386 6.74018 20.2537 6.51671 19.8313 6.40185C18.2653 5.97185 12.0003 5.96485 12.0003 5.96485C12.0003 5.96485 5.73633 5.95785 4.16933 6.36885C3.74725 6.489 3.36315 6.71563 3.0539 7.02699C2.74464 7.33834 2.52062 7.72397 2.40333 8.14685C1.99033 9.71285 1.98633 12.9609 1.98633 12.9609C1.98633 12.9609 1.98233 16.2249 2.39233 17.7749C2.62233 18.6319 3.29733 19.3089 4.15533 19.5399C5.73733 19.9699 11.9853 19.9769 11.9853 19.9769C11.9853 19.9769 18.2503 19.9839 19.8163 19.5739C20.2388 19.4592 20.6241 19.2362 20.934 18.927C21.2439 18.6178 21.4677 18.2331 21.5833 17.8109C21.9973 16.2459 22.0003 12.9989 22.0003 12.9989C22.0003 12.9989 22.0203 9.73385 21.5933 8.16785ZM9.99633 15.9699L10.0013 9.96985L15.2083 12.9749L9.99633 15.9699Z" fill="black"/>
</svg>
